<svg width="282" height="113" viewBox="0 0 282 113" fill="none" xmlns="http://www.w3.org/2000/svg">
<circle cx="141" cy="71" r="26" fill="#1F72E4"/>
<circle cx="141" cy="109" r="4" fill="#1F72E4"/>
<path fill-rule="evenodd" clip-rule="evenodd" d="M148.333 73.9999C148.333 73.5579 148.509 73.134 148.821 72.8214C149.134 72.5088 149.558 72.3333 150 72.3333C150.442 72.3333 150.866 72.5088 151.179 72.8214C151.491 73.134 151.667 73.5579 151.667 73.9999C151.667 74.4419 151.491 74.8659 151.179 75.1784C150.866 75.491 150.442 75.6666 150 75.6666C149.558 75.6666 149.134 75.491 148.821 75.1784C148.509 74.8659 148.333 74.4419 148.333 73.9999ZM137.667 77.9999H144.333V76.3333H137.667V77.9999ZM132 75.3333C131.558 75.3333 131.134 75.1577 130.821 74.8451C130.509 74.5325 130.333 74.1086 130.333 73.6666C130.333 73.2246 130.509 72.8006 130.821 72.4881C131.134 72.1755 131.558 71.9999 132 71.9999C132.442 71.9999 132.866 72.1755 133.179 72.4881C133.491 72.8006 133.667 73.2246 133.667 73.6666C133.667 74.1086 133.491 74.5325 133.179 74.8451C132.866 75.1577 132.442 75.3333 132 75.3333ZM135.267 63.4599C135.36 63.1866 135.613 62.9999 135.893 62.9999H146.1C146.387 62.9999 146.64 63.1866 146.753 63.5199L148.82 68.9999H133.18L135.267 63.4599ZM153 68.5313V67.9999C153 67.7347 152.895 67.4803 152.707 67.2928C152.52 67.1053 152.265 66.9999 152 66.9999H150.913L149.267 62.6333C149.049 61.966 148.627 61.3845 148.059 60.9715C147.492 60.5585 146.808 60.3352 146.107 60.3333H135.887C134.447 60.3399 133.18 61.2666 132.753 62.5799L131.087 66.9999H130C129.735 66.9999 129.48 67.1053 129.293 67.2928C129.105 67.4803 129 67.7347 129 67.9999V68.5313C129 68.7588 129.078 68.9795 129.22 69.1569C129.363 69.3344 129.561 69.458 129.783 69.5073L130.08 69.5733L129.567 70.7399C129.199 71.5693 129.008 72.4661 129.007 73.3733L129 81.2533C129 81.8466 129.487 82.3333 130.08 82.3333H131.92C132.513 82.3333 133 81.8466 133 81.2533V79.9999H132V78.9999H150V79.9999H149V81.2533C149 81.8466 149.487 82.3333 150.08 82.3333H151.92C152.513 82.3333 153 81.8466 153 81.2533V73.3866C153 72.4733 152.807 71.5666 152.433 70.7333L151.92 69.5733L152.217 69.5073C152.439 69.458 152.637 69.3344 152.78 69.1569C152.922 68.9795 153 68.7588 153 68.5313Z" fill="white"/>
<rect width="282" height="32" rx="6" fill="#081225"/>
<path d="M17.0568 11.2727H18.3182L21.2841 18.517H21.3864L24.3523 11.2727H25.6136V20H24.625V13.3693H24.5398L21.8125 20H20.858L18.1307 13.3693H18.0455V20H17.0568V11.2727ZM30.6153 20.1364C30.0244 20.1364 29.506 19.9957 29.0599 19.7145C28.6167 19.4332 28.2702 19.0398 28.0202 18.5341C27.773 18.0284 27.6494 17.4375 27.6494 16.7614C27.6494 16.0795 27.773 15.4844 28.0202 14.9759C28.2702 14.4673 28.6167 14.0724 29.0599 13.7912C29.506 13.5099 30.0244 13.3693 30.6153 13.3693C31.2062 13.3693 31.7233 13.5099 32.1665 13.7912C32.6125 14.0724 32.9591 14.4673 33.2062 14.9759C33.4562 15.4844 33.5812 16.0795 33.5812 16.7614C33.5812 17.4375 33.4562 18.0284 33.2062 18.5341C32.9591 19.0398 32.6125 19.4332 32.1665 19.7145C31.7233 19.9957 31.2062 20.1364 30.6153 20.1364ZM30.6153 19.233C31.0642 19.233 31.4335 19.1179 31.7233 18.8878C32.0131 18.6577 32.2275 18.3551 32.3667 17.9801C32.506 17.6051 32.5756 17.1989 32.5756 16.7614C32.5756 16.3239 32.506 15.9162 32.3667 15.5384C32.2275 15.1605 32.0131 14.8551 31.7233 14.6222C31.4335 14.3892 31.0642 14.2727 30.6153 14.2727C30.1665 14.2727 29.7971 14.3892 29.5074 14.6222C29.2176 14.8551 29.0031 15.1605 28.8639 15.5384C28.7247 15.9162 28.6551 16.3239 28.6551 16.7614C28.6551 17.1989 28.7247 17.6051 28.8639 17.9801C29.0031 18.3551 29.2176 18.6577 29.5074 18.8878C29.7971 19.1179 30.1665 19.233 30.6153 19.233ZM38.1355 20.1364C37.5218 20.1364 36.9934 19.9915 36.5503 19.7017C36.1071 19.4119 35.7662 19.0128 35.5275 18.5043C35.2889 17.9957 35.1696 17.4148 35.1696 16.7614C35.1696 16.0966 35.2917 15.5099 35.5361 15.0014C35.7832 14.4901 36.127 14.0909 36.5673 13.804C37.0105 13.5142 37.5275 13.3693 38.1184 13.3693C38.5787 13.3693 38.9934 13.4545 39.3628 13.625C39.7321 13.7955 40.0346 14.0341 40.2704 14.3409C40.5062 14.6477 40.6525 15.0057 40.7093 15.4148H39.7037C39.627 15.1165 39.4565 14.8523 39.1923 14.6222C38.9309 14.3892 38.5787 14.2727 38.1355 14.2727C37.7434 14.2727 37.3997 14.375 37.1042 14.5795C36.8116 14.7812 36.5829 15.0668 36.4182 15.4361C36.2562 15.8026 36.1753 16.233 36.1753 16.7273C36.1753 17.233 36.2548 17.6733 36.4139 18.0483C36.5758 18.4233 36.8031 18.7145 37.0957 18.9219C37.3912 19.1293 37.7378 19.233 38.1355 19.233C38.3968 19.233 38.6341 19.1875 38.8471 19.0966C39.0602 19.0057 39.2406 18.875 39.3883 18.7045C39.5361 18.5341 39.6412 18.3295 39.7037 18.0909H40.7093C40.6525 18.4773 40.5119 18.8253 40.2875 19.1349C40.0659 19.4418 39.7718 19.6861 39.4054 19.8679C39.0417 20.0469 38.6184 20.1364 38.1355 20.1364ZM42.5395 20V13.4545H43.5452V16.3011H44.21L46.5622 13.4545H47.8577L45.2157 16.608L47.8918 20H46.5963L44.4486 17.2386H43.5452V20H42.5395ZM49.3448 20V13.4545H52.021C52.7255 13.4545 53.2852 13.6136 53.6999 13.9318C54.1147 14.25 54.3221 14.6705 54.3221 15.1932C54.3221 15.5909 54.2042 15.8991 53.9684 16.1179C53.7326 16.3338 53.4301 16.4801 53.0607 16.5568C53.3022 16.5909 53.5366 16.6761 53.7639 16.8125C53.994 16.9489 54.1843 17.1364 54.3349 17.375C54.4855 17.6108 54.5607 17.9006 54.5607 18.2443C54.5607 18.5795 54.4755 18.8793 54.3051 19.1435C54.1346 19.4077 53.8903 19.6165 53.5721 19.7699C53.2539 19.9233 52.8732 20 52.4301 20H49.3448ZM50.2994 19.0795H52.4301C52.7766 19.0795 53.048 18.9972 53.244 18.8324C53.44 18.6676 53.538 18.4432 53.538 18.1591C53.538 17.821 53.44 17.5554 53.244 17.3622C53.048 17.1662 52.7766 17.0682 52.4301 17.0682H50.2994V19.0795ZM50.2994 16.1989H52.021C52.2909 16.1989 52.5224 16.1619 52.7156 16.0881C52.9087 16.0114 53.0565 15.9034 53.1587 15.7642C53.2639 15.6222 53.3164 15.4545 53.3164 15.2614C53.3164 14.9858 53.2014 14.7699 52.9712 14.6136C52.7411 14.4545 52.4244 14.375 52.021 14.375H50.2994V16.1989ZM58.3692 20.1534C57.9545 20.1534 57.5781 20.0753 57.24 19.919C56.9019 19.7599 56.6335 19.5312 56.4346 19.233C56.2357 18.9318 56.1363 18.5682 56.1363 18.142C56.1363 17.767 56.2102 17.4631 56.3579 17.2301C56.5056 16.9943 56.7031 16.8097 56.9502 16.6761C57.1974 16.5426 57.4701 16.4432 57.7684 16.3778C58.0695 16.3097 58.3721 16.2557 58.6761 16.2159C59.0738 16.1648 59.3962 16.1264 59.6434 16.1009C59.8934 16.0724 60.0752 16.0256 60.1888 15.9602C60.3053 15.8949 60.3636 15.7812 60.3636 15.6193V15.5852C60.3636 15.1648 60.2485 14.8381 60.0184 14.6051C59.7911 14.3722 59.446 14.2557 58.9829 14.2557C58.5028 14.2557 58.1263 14.3608 57.8536 14.571C57.5809 14.7812 57.3891 15.0057 57.2783 15.2443L56.3238 14.9034C56.4942 14.5057 56.7215 14.196 57.0056 13.9744C57.2925 13.75 57.605 13.5937 57.9431 13.5057C58.284 13.4148 58.6192 13.3693 58.9488 13.3693C59.159 13.3693 59.4005 13.3949 59.6732 13.446C59.9488 13.4943 60.2144 13.5952 60.4701 13.7486C60.7286 13.902 60.9431 14.1335 61.1136 14.4432C61.284 14.7528 61.3692 15.1676 61.3692 15.6875V20H60.3636V19.1136H60.3124C60.2442 19.2557 60.1306 19.4077 59.9715 19.5696C59.8124 19.7315 59.6008 19.8693 59.3366 19.983C59.0724 20.0966 58.7499 20.1534 58.3692 20.1534ZM58.5227 19.25C58.9204 19.25 59.2556 19.1719 59.5283 19.0156C59.8039 18.8594 60.0113 18.6577 60.1505 18.4105C60.2925 18.1634 60.3636 17.9034 60.3636 17.6307V16.7102C60.321 16.7614 60.2272 16.8082 60.0823 16.8509C59.9403 16.8906 59.7755 16.9261 59.588 16.9574C59.4033 16.9858 59.2229 17.0114 59.0468 17.0341C58.8735 17.054 58.7329 17.071 58.6249 17.0852C58.3636 17.1193 58.1192 17.1747 57.892 17.2514C57.6675 17.3253 57.4857 17.4375 57.3465 17.5881C57.2102 17.7358 57.142 17.9375 57.142 18.1932C57.142 18.5426 57.2712 18.8068 57.5298 18.9858C57.7911 19.1619 58.1221 19.25 58.5227 19.25ZM65.0648 18.8068L64.9966 19.267C64.9484 19.5909 64.8745 19.9375 64.7751 20.3068C64.6785 20.6761 64.5776 21.0241 64.4725 21.3509C64.3674 21.6776 64.2807 21.9375 64.2126 22.1307H63.4455C63.4824 21.9489 63.5307 21.7088 63.5904 21.4105C63.6501 21.1122 63.7097 20.7784 63.7694 20.4091C63.8319 20.0426 63.883 19.6676 63.9228 19.2841L63.9739 18.8068H65.0648ZM71.6708 22.4545C71.5004 22.4545 71.3484 22.4403 71.2149 22.4119C71.0814 22.3864 70.989 22.3608 70.9379 22.3352L71.1936 21.4489C71.4379 21.5114 71.6538 21.5341 71.8413 21.517C72.0288 21.5 72.195 21.4162 72.3399 21.2656C72.4876 21.1179 72.6225 20.8778 72.7447 20.5455L72.9322 20.0341L70.5117 13.4545H71.6027L73.4095 18.6705H73.4777L75.2845 13.4545H76.3754L73.597 20.9545C73.472 21.2926 73.3171 21.5724 73.1325 21.794C72.9478 22.0185 72.7333 22.1847 72.489 22.2926C72.2475 22.4006 71.9748 22.4545 71.6708 22.4545ZM76.9325 20V19.0625H77.1711C77.3671 19.0625 77.5305 19.0241 77.6612 18.9474C77.7918 18.8679 77.897 18.7301 77.9765 18.5341C78.0589 18.3352 78.1214 18.0597 78.164 17.7074C78.2095 17.3523 78.2421 16.9006 78.262 16.3523L78.3813 13.4545H82.745V20H81.7393V14.392H79.3359L79.2336 16.7273C79.2109 17.2642 79.1626 17.7372 79.0887 18.1463C79.0177 18.5526 78.9083 18.8935 78.7606 19.169C78.6157 19.4446 78.4225 19.652 78.1811 19.7912C77.9396 19.9304 77.637 20 77.2734 20H76.9325ZM85.6831 20.0682C85.4729 20.0682 85.2925 19.9929 85.1419 19.8423C84.9913 19.6918 84.916 19.5114 84.916 19.3011C84.916 19.0909 84.9913 18.9105 85.1419 18.7599C85.2925 18.6094 85.4729 18.5341 85.6831 18.5341C85.8933 18.5341 86.0737 18.6094 86.2243 18.7599C86.3749 18.9105 86.4501 19.0909 86.4501 19.3011C86.4501 19.4403 86.4146 19.5682 86.3436 19.6847C86.2754 19.8011 86.1831 19.8949 86.0666 19.9659C85.953 20.0341 85.8251 20.0682 85.6831 20.0682ZM91.7362 20V19.0284H91.9919C92.3555 19.0284 92.6382 18.9119 92.8399 18.679C93.0416 18.446 93.1865 18.0696 93.2745 17.5497C93.3655 17.0298 93.4265 16.3409 93.4578 15.483L93.6112 11.2727H98.9294V20H97.8726V12.2102H94.6169L94.4805 15.6875C94.4464 16.6023 94.3626 17.3807 94.2291 18.0227C94.0956 18.6648 93.8612 19.1548 93.526 19.4929C93.1907 19.831 92.7021 20 92.0601 20H91.7362ZM103.924 20.1364C103.333 20.1364 102.814 19.9957 102.368 19.7145C101.925 19.4332 101.578 19.0398 101.328 18.5341C101.081 18.0284 100.958 17.4375 100.958 16.7614C100.958 16.0795 101.081 15.4844 101.328 14.9759C101.578 14.4673 101.925 14.0724 102.368 13.7912C102.814 13.5099 103.333 13.3693 103.924 13.3693C104.515 13.3693 105.032 13.5099 105.475 13.7912C105.921 14.0724 106.267 14.4673 106.515 14.9759C106.765 15.4844 106.89 16.0795 106.89 16.7614C106.89 17.4375 106.765 18.0284 106.515 18.5341C106.267 19.0398 105.921 19.4332 105.475 19.7145C105.032 19.9957 104.515 20.1364 103.924 20.1364ZM103.924 19.233C104.372 19.233 104.742 19.1179 105.032 18.8878C105.321 18.6577 105.536 18.3551 105.675 17.9801C105.814 17.6051 105.884 17.1989 105.884 16.7614C105.884 16.3239 105.814 15.9162 105.675 15.5384C105.536 15.1605 105.321 14.8551 105.032 14.6222C104.742 14.3892 104.372 14.2727 103.924 14.2727C103.475 14.2727 103.105 14.3892 102.816 14.6222C102.526 14.8551 102.311 15.1605 102.172 15.5384C102.033 15.9162 101.963 16.3239 101.963 16.7614C101.963 17.1989 102.033 17.6051 102.172 17.9801C102.311 18.3551 102.526 18.6577 102.816 18.8878C103.105 19.1179 103.475 19.233 103.924 19.233ZM113.643 11L114.154 11.6136C113.955 11.8068 113.725 11.9418 113.464 12.0185C113.202 12.0952 112.907 12.142 112.577 12.1591C112.248 12.1761 111.881 12.1932 111.478 12.2102C111.023 12.2273 110.647 12.3381 110.349 12.5426C110.05 12.7472 109.82 13.0426 109.658 13.429C109.496 13.8153 109.393 14.2898 109.347 14.8523H109.432C109.654 14.4432 109.961 14.142 110.353 13.9489C110.745 13.7557 111.165 13.6591 111.614 13.6591C112.126 13.6591 112.586 13.7784 112.995 14.017C113.404 14.2557 113.728 14.6094 113.966 15.0781C114.205 15.5469 114.324 16.125 114.324 16.8125C114.324 17.4972 114.202 18.0881 113.958 18.5852C113.716 19.0824 113.377 19.4659 112.94 19.7358C112.505 20.0028 111.995 20.1364 111.41 20.1364C110.824 20.1364 110.312 19.9986 109.871 19.723C109.431 19.4446 109.089 19.0327 108.844 18.4872C108.6 17.9389 108.478 17.2614 108.478 16.4545V15.7557C108.478 14.2983 108.725 13.1932 109.219 12.4403C109.716 11.6875 110.464 11.2983 111.461 11.2727C111.813 11.2614 112.127 11.2585 112.403 11.2642C112.678 11.2699 112.918 11.2571 113.123 11.2259C113.327 11.1946 113.501 11.1193 113.643 11ZM111.41 19.233C111.805 19.233 112.144 19.1335 112.428 18.9347C112.715 18.7358 112.935 18.456 113.089 18.0952C113.242 17.7315 113.319 17.304 113.319 16.8125C113.319 16.3352 113.241 15.929 113.084 15.5938C112.931 15.2585 112.711 15.0028 112.424 14.8267C112.137 14.6506 111.793 14.5625 111.393 14.5625C111.1 14.5625 110.837 14.6122 110.604 14.7116C110.371 14.8111 110.172 14.9574 110.008 15.1506C109.843 15.3437 109.715 15.5795 109.624 15.858C109.536 16.1364 109.489 16.4545 109.484 16.8125C109.484 17.5455 109.655 18.1321 109.999 18.5724C110.343 19.0128 110.813 19.233 111.41 19.233ZM118.149 20.1534C117.734 20.1534 117.358 20.0753 117.02 19.919C116.682 19.7599 116.413 19.5312 116.214 19.233C116.015 18.9318 115.916 18.5682 115.916 18.142C115.916 17.767 115.99 17.4631 116.138 17.2301C116.285 16.9943 116.483 16.8097 116.73 16.6761C116.977 16.5426 117.25 16.4432 117.548 16.3778C117.849 16.3097 118.152 16.2557 118.456 16.2159C118.853 16.1648 119.176 16.1264 119.423 16.1009C119.673 16.0724 119.855 16.0256 119.969 15.9602C120.085 15.8949 120.143 15.7812 120.143 15.6193V15.5852C120.143 15.1648 120.028 14.8381 119.798 14.6051C119.571 14.3722 119.226 14.2557 118.763 14.2557C118.282 14.2557 117.906 14.3608 117.633 14.571C117.361 14.7812 117.169 15.0057 117.058 15.2443L116.103 14.9034C116.274 14.5057 116.501 14.196 116.785 13.9744C117.072 13.75 117.385 13.5937 117.723 13.5057C118.064 13.4148 118.399 13.3693 118.728 13.3693C118.939 13.3693 119.18 13.3949 119.453 13.446C119.728 13.4943 119.994 13.5952 120.25 13.7486C120.508 13.902 120.723 14.1335 120.893 14.4432C121.064 14.7528 121.149 15.1676 121.149 15.6875V20H120.143V19.1136H120.092C120.024 19.2557 119.91 19.4077 119.751 19.5696C119.592 19.7315 119.38 19.8693 119.116 19.983C118.852 20.0966 118.53 20.1534 118.149 20.1534ZM118.302 19.25C118.7 19.25 119.035 19.1719 119.308 19.0156C119.584 18.8594 119.791 18.6577 119.93 18.4105C120.072 18.1634 120.143 17.9034 120.143 17.6307V16.7102C120.101 16.7614 120.007 16.8082 119.862 16.8509C119.72 16.8906 119.555 16.9261 119.368 16.9574C119.183 16.9858 119.003 17.0114 118.826 17.0341C118.653 17.054 118.513 17.071 118.405 17.0852C118.143 17.1193 117.899 17.1747 117.672 17.2514C117.447 17.3253 117.265 17.4375 117.126 17.5881C116.99 17.7358 116.922 17.9375 116.922 18.1932C116.922 18.5426 117.051 18.8068 117.309 18.9858C117.571 19.1619 117.902 19.25 118.302 19.25ZM128.39 13.4545V20H127.384V13.4545H128.39ZM127.998 16.5739V17.5114C127.771 17.5966 127.545 17.6719 127.32 17.7372C127.096 17.7997 126.86 17.8494 126.613 17.8864C126.366 17.9205 126.095 17.9375 125.799 17.9375C125.058 17.9375 124.462 17.7372 124.014 17.3366C123.568 16.9361 123.345 16.3352 123.345 15.5341V13.4375H124.35V15.5341C124.35 15.8693 124.414 16.1449 124.542 16.3608C124.67 16.5767 124.843 16.7372 125.062 16.8423C125.281 16.9474 125.526 17 125.799 17C126.225 17 126.61 16.9616 126.954 16.8849C127.3 16.8054 127.648 16.7017 127.998 16.5739ZM133.339 20.1364C132.709 20.1364 132.165 19.9972 131.707 19.7188C131.253 19.4375 130.902 19.0455 130.655 18.5426C130.41 18.0369 130.288 17.4489 130.288 16.7784C130.288 16.108 130.41 15.517 130.655 15.0057C130.902 14.4915 131.246 14.0909 131.686 13.804C132.129 13.5142 132.646 13.3693 133.237 13.3693C133.578 13.3693 133.915 13.4261 134.247 13.5398C134.58 13.6534 134.882 13.8381 135.155 14.0938C135.428 14.3466 135.645 14.6818 135.807 15.0994C135.969 15.517 136.05 16.0312 136.05 16.642V17.0682H131.004V16.1989H135.027C135.027 15.8295 134.953 15.5 134.805 15.2102C134.66 14.9205 134.453 14.6918 134.183 14.5241C133.916 14.3565 133.601 14.2727 133.237 14.2727C132.837 14.2727 132.49 14.3722 132.197 14.571C131.908 14.767 131.685 15.0227 131.528 15.3381C131.372 15.6534 131.294 15.9915 131.294 16.3523V16.9318C131.294 17.4261 131.379 17.8452 131.55 18.1889C131.723 18.5298 131.963 18.7898 132.27 18.9688C132.577 19.1449 132.933 19.233 133.339 19.233C133.604 19.233 133.842 19.196 134.055 19.1222C134.271 19.0455 134.457 18.9318 134.614 18.7812C134.77 18.6278 134.891 18.4375 134.976 18.2102L135.947 18.483C135.845 18.8125 135.673 19.1023 135.432 19.3523C135.19 19.5994 134.892 19.7926 134.537 19.9318C134.182 20.0682 133.783 20.1364 133.339 20.1364ZM137.94 20V13.4545H140.616C141.32 13.4545 141.88 13.6136 142.295 13.9318C142.709 14.25 142.917 14.6705 142.917 15.1932C142.917 15.5909 142.799 15.8991 142.563 16.1179C142.327 16.3338 142.025 16.4801 141.655 16.5568C141.897 16.5909 142.131 16.6761 142.359 16.8125C142.589 16.9489 142.779 17.1364 142.93 17.375C143.08 17.6108 143.155 17.9006 143.155 18.2443C143.155 18.5795 143.07 18.8793 142.9 19.1435C142.729 19.4077 142.485 19.6165 142.167 19.7699C141.849 19.9233 141.468 20 141.025 20H137.94ZM138.894 19.0795H141.025C141.371 19.0795 141.643 18.9972 141.839 18.8324C142.035 18.6676 142.133 18.4432 142.133 18.1591C142.133 17.821 142.035 17.5554 141.839 17.3622C141.643 17.1662 141.371 17.0682 141.025 17.0682H138.894V19.0795ZM138.894 16.1989H140.616C140.886 16.1989 141.117 16.1619 141.31 16.0881C141.503 16.0114 141.651 15.9034 141.753 15.7642C141.859 15.6222 141.911 15.4545 141.911 15.2614C141.911 14.9858 141.796 14.7699 141.566 14.6136C141.336 14.4545 141.019 14.375 140.616 14.375H138.894V16.1989ZM147.697 20.1364C147.083 20.1364 146.555 19.9915 146.112 19.7017C145.668 19.4119 145.328 19.0128 145.089 18.5043C144.85 17.9957 144.731 17.4148 144.731 16.7614C144.731 16.0966 144.853 15.5099 145.097 15.0014C145.345 14.4901 145.688 14.0909 146.129 13.804C146.572 13.5142 147.089 13.3693 147.68 13.3693C148.14 13.3693 148.555 13.4545 148.924 13.625C149.293 13.7955 149.596 14.0341 149.832 14.3409C150.068 14.6477 150.214 15.0057 150.271 15.4148H149.265C149.188 15.1165 149.018 14.8523 148.754 14.6222C148.492 14.3892 148.14 14.2727 147.697 14.2727C147.305 14.2727 146.961 14.375 146.666 14.5795C146.373 14.7812 146.144 15.0668 145.98 15.4361C145.818 15.8026 145.737 16.233 145.737 16.7273C145.737 17.233 145.816 17.6733 145.975 18.0483C146.137 18.4233 146.364 18.7145 146.657 18.9219C146.953 19.1293 147.299 19.233 147.697 19.233C147.958 19.233 148.195 19.1875 148.409 19.0966C148.622 19.0057 148.802 18.875 148.95 18.7045C149.097 18.5341 149.203 18.3295 149.265 18.0909H150.271C150.214 18.4773 150.073 18.8253 149.849 19.1349C149.627 19.4418 149.333 19.6861 148.967 19.8679C148.603 20.0469 148.18 20.1364 147.697 20.1364ZM152.101 20V13.4545H153.107V16.3011H153.771L156.124 13.4545H157.419L154.777 16.608L157.453 20H156.158L154.01 17.2386H153.107V20H152.101ZM161.296 20.1364C160.705 20.1364 160.186 19.9957 159.74 19.7145C159.297 19.4332 158.951 19.0398 158.701 18.5341C158.453 18.0284 158.33 17.4375 158.33 16.7614C158.33 16.0795 158.453 15.4844 158.701 14.9759C158.951 14.4673 159.297 14.0724 159.74 13.7912C160.186 13.5099 160.705 13.3693 161.296 13.3693C161.887 13.3693 162.404 13.5099 162.847 13.7912C163.293 14.0724 163.64 14.4673 163.887 14.9759C164.137 15.4844 164.262 16.0795 164.262 16.7614C164.262 17.4375 164.137 18.0284 163.887 18.5341C163.64 19.0398 163.293 19.4332 162.847 19.7145C162.404 19.9957 161.887 20.1364 161.296 20.1364ZM161.296 19.233C161.745 19.233 162.114 19.1179 162.404 18.8878C162.694 18.6577 162.908 18.3551 163.047 17.9801C163.186 17.6051 163.256 17.1989 163.256 16.7614C163.256 16.3239 163.186 15.9162 163.047 15.5384C162.908 15.1605 162.694 14.8551 162.404 14.6222C162.114 14.3892 161.745 14.2727 161.296 14.2727C160.847 14.2727 160.478 14.3892 160.188 14.6222C159.898 14.8551 159.684 15.1605 159.544 15.5384C159.405 15.9162 159.336 16.3239 159.336 16.7614C159.336 17.1989 159.405 17.6051 159.544 17.9801C159.684 18.3551 159.898 18.6577 160.188 18.8878C160.478 19.1179 160.847 19.233 161.296 19.233ZM170.197 13.4545V14.392H167.163V20H166.157V13.4545H170.197ZM174.344 20.1364C173.753 20.1364 173.235 19.9957 172.789 19.7145C172.345 19.4332 171.999 19.0398 171.749 18.5341C171.502 18.0284 171.378 17.4375 171.378 16.7614C171.378 16.0795 171.502 15.4844 171.749 14.9759C171.999 14.4673 172.345 14.0724 172.789 13.7912C173.235 13.5099 173.753 13.3693 174.344 13.3693C174.935 13.3693 175.452 13.5099 175.895 13.7912C176.341 14.0724 176.688 14.4673 176.935 14.9759C177.185 15.4844 177.31 16.0795 177.31 16.7614C177.31 17.4375 177.185 18.0284 176.935 18.5341C176.688 19.0398 176.341 19.4332 175.895 19.7145C175.452 19.9957 174.935 20.1364 174.344 20.1364ZM174.344 19.233C174.793 19.233 175.162 19.1179 175.452 18.8878C175.742 18.6577 175.956 18.3551 176.095 17.9801C176.235 17.6051 176.304 17.1989 176.304 16.7614C176.304 16.3239 176.235 15.9162 176.095 15.5384C175.956 15.1605 175.742 14.8551 175.452 14.6222C175.162 14.3892 174.793 14.2727 174.344 14.2727C173.895 14.2727 173.526 14.3892 173.236 14.6222C172.946 14.8551 172.732 15.1605 172.592 15.5384C172.453 15.9162 172.384 16.3239 172.384 16.7614C172.384 17.1989 172.453 17.6051 172.592 17.9801C172.732 18.3551 172.946 18.6577 173.236 18.8878C173.526 19.1179 173.895 19.233 174.344 19.233ZM180.705 18.8068L180.637 19.267C180.589 19.5909 180.515 19.9375 180.415 20.3068C180.319 20.6761 180.218 21.0241 180.113 21.3509C180.008 21.6776 179.921 21.9375 179.853 22.1307H179.086C179.123 21.9489 179.171 21.7088 179.231 21.4105C179.29 21.1122 179.35 20.7784 179.41 20.4091C179.472 20.0426 179.523 19.6676 179.563 19.2841L179.614 18.8068H180.705ZM185.964 21.875V19.0625H186.51C186.643 18.9233 186.758 18.7727 186.855 18.6108C186.952 18.4489 187.035 18.2571 187.106 18.0355C187.18 17.8111 187.243 17.5384 187.294 17.2173C187.345 16.8935 187.391 16.5028 187.43 16.0455L187.652 13.4545H191.811V19.0625H192.817V21.875H191.811V20H186.97V21.875H185.964ZM187.652 19.0625H190.805V14.392H188.589L188.419 16.0455C188.348 16.7301 188.26 17.3281 188.155 17.8395C188.05 18.3509 187.882 18.7585 187.652 19.0625ZM195.245 20.0682C195.034 20.0682 194.854 19.9929 194.703 19.8423C194.553 19.6918 194.477 19.5114 194.477 19.3011C194.477 19.0909 194.553 18.9105 194.703 18.7599C194.854 18.6094 195.034 18.5341 195.245 18.5341C195.455 18.5341 195.635 18.6094 195.786 18.7599C195.936 18.9105 196.012 19.0909 196.012 19.3011C196.012 19.4403 195.976 19.5682 195.905 19.6847C195.837 19.8011 195.745 19.8949 195.628 19.9659C195.514 20.0341 195.387 20.0682 195.245 20.0682ZM204.962 11.2727V20H203.906V12.3807H203.854L201.724 13.7955V12.7216L203.906 11.2727H204.962ZM210.901 11.2727V20H209.844V12.3807H209.793L207.662 13.7955V12.7216L209.844 11.2727H210.901ZM216.617 20.1193C215.975 20.1193 215.428 19.9446 214.976 19.5952C214.525 19.2429 214.18 18.733 213.941 18.0653C213.702 17.3949 213.583 16.5852 213.583 15.6364C213.583 14.6932 213.702 13.8878 213.941 13.2202C214.182 12.5497 214.529 12.0384 214.981 11.6861C215.435 11.331 215.981 11.1534 216.617 11.1534C217.253 11.1534 217.797 11.331 218.249 11.6861C218.704 12.0384 219.05 12.5497 219.289 13.2202C219.53 13.8878 219.651 14.6932 219.651 15.6364C219.651 16.5852 219.532 17.3949 219.293 18.0653C219.055 18.733 218.709 19.2429 218.258 19.5952C217.806 19.9446 217.259 20.1193 216.617 20.1193ZM216.617 19.1818C217.253 19.1818 217.748 18.875 218.1 18.2614C218.452 17.6477 218.628 16.7727 218.628 15.6364C218.628 14.8807 218.547 14.2372 218.386 13.706C218.226 13.1747 217.996 12.7699 217.695 12.4915C217.397 12.2131 217.037 12.0739 216.617 12.0739C215.986 12.0739 215.493 12.3849 215.138 13.0071C214.783 13.6264 214.606 14.5028 214.606 15.6364C214.606 16.392 214.685 17.0341 214.844 17.5625C215.003 18.0909 215.232 18.4929 215.53 18.7685C215.832 19.044 216.194 19.1818 216.617 19.1818ZM222.843 18.8068L222.775 19.267C222.726 19.5909 222.652 19.9375 222.553 20.3068C222.456 20.6761 222.356 21.0241 222.25 21.3509C222.145 21.6776 222.059 21.9375 221.991 22.1307H221.223C221.26 21.9489 221.309 21.7088 221.368 21.4105C221.428 21.1122 221.488 20.7784 221.547 20.4091C221.61 20.0426 221.661 19.6676 221.701 19.2841L221.752 18.8068H222.843ZM228.801 20V13.4545H229.807V16.3011H230.472L232.824 13.4545H234.119L231.477 16.608L234.153 20H232.858L230.71 17.2386H229.807V20H228.801ZM237.996 20.1364C237.405 20.1364 236.887 19.9957 236.441 19.7145C235.997 19.4332 235.651 19.0398 235.401 18.5341C235.154 18.0284 235.03 17.4375 235.03 16.7614C235.03 16.0795 235.154 15.4844 235.401 14.9759C235.651 14.4673 235.997 14.0724 236.441 13.7912C236.887 13.5099 237.405 13.3693 237.996 13.3693C238.587 13.3693 239.104 13.5099 239.547 13.7912C239.993 14.0724 240.34 14.4673 240.587 14.9759C240.837 15.4844 240.962 16.0795 240.962 16.7614C240.962 17.4375 240.837 18.0284 240.587 18.5341C240.34 19.0398 239.993 19.4332 239.547 19.7145C239.104 19.9957 238.587 20.1364 237.996 20.1364ZM237.996 19.233C238.445 19.233 238.814 19.1179 239.104 18.8878C239.394 18.6577 239.608 18.3551 239.747 17.9801C239.887 17.6051 239.956 17.1989 239.956 16.7614C239.956 16.3239 239.887 15.9162 239.747 15.5384C239.608 15.1605 239.394 14.8551 239.104 14.6222C238.814 14.3892 238.445 14.2727 237.996 14.2727C237.547 14.2727 237.178 14.3892 236.888 14.6222C236.598 14.8551 236.384 15.1605 236.245 15.5384C236.105 15.9162 236.036 16.3239 236.036 16.7614C236.036 17.1989 236.105 17.6051 236.245 17.9801C236.384 18.3551 236.598 18.6577 236.888 18.8878C237.178 19.1179 237.547 19.233 237.996 19.233ZM242.857 22.4545V13.4545H243.829V14.4943H243.948C244.022 14.3807 244.124 14.2358 244.255 14.0597C244.388 13.8807 244.579 13.7216 244.826 13.5824C245.076 13.4403 245.414 13.3693 245.84 13.3693C246.391 13.3693 246.877 13.5071 247.297 13.7827C247.718 14.0582 248.046 14.4489 248.282 14.9545C248.518 15.4602 248.635 16.0568 248.635 16.7443C248.635 17.4375 248.518 18.0384 248.282 18.5469C248.046 19.0526 247.719 19.4446 247.302 19.723C246.884 19.9986 246.402 20.1364 245.857 20.1364C245.437 20.1364 245.1 20.0668 244.847 19.9276C244.594 19.7855 244.4 19.625 244.263 19.446C244.127 19.2642 244.022 19.1136 243.948 18.9943H243.863V22.4545H242.857ZM243.846 16.7273C243.846 17.2216 243.918 17.6577 244.063 18.0355C244.208 18.4105 244.42 18.7045 244.698 18.9176C244.976 19.1278 245.317 19.233 245.721 19.233C246.141 19.233 246.492 19.1222 246.773 18.9006C247.057 18.6761 247.27 18.375 247.412 17.9972C247.557 17.6165 247.63 17.1932 247.63 16.7273C247.63 16.267 247.559 15.8523 247.417 15.483C247.277 15.1108 247.066 14.8168 246.782 14.6009C246.5 14.3821 246.147 14.2727 245.721 14.2727C245.312 14.2727 244.968 14.3764 244.689 14.5838C244.411 14.7884 244.201 15.0753 244.059 15.4446C243.917 15.8111 243.846 16.2386 243.846 16.7273ZM250.53 20V13.4545H255.677V20H254.672V14.392H251.535V20H250.53ZM258.607 20.0682C258.397 20.0682 258.216 19.9929 258.066 19.8423C257.915 19.6918 257.84 19.5114 257.84 19.3011C257.84 19.0909 257.915 18.9105 258.066 18.7599C258.216 18.6094 258.397 18.5341 258.607 18.5341C258.817 18.5341 258.997 18.6094 259.148 18.7599C259.299 18.9105 259.374 19.0909 259.374 19.3011C259.374 19.4403 259.338 19.5682 259.267 19.6847C259.199 19.8011 259.107 19.8949 258.99 19.9659C258.877 20.0341 258.749 20.0682 258.607 20.0682ZM263.547 11.2727V20H262.49V12.3807H262.439L260.308 13.7955V12.7216L262.49 11.2727H263.547Z" fill="white"/>
</svg>
