<svg width="48" height="48" viewBox="0 0 48 48" fill="none" xmlns="http://www.w3.org/2000/svg">
<g clip-path="url(#clip0_1540_6050)">
<path d="M29.9437 41.3992C28.0312 41.9195 26.0363 42.1876 24 42.1876C21.9637 42.1876 19.9688 41.9195 18.0563 41.3992L17.2399 45.1876H12.75V48.0001H35.25V45.1876H30.7601L29.9437 41.3992Z" fill="#1F72E4"/>
<path d="M24 23.9062C26.33 23.9062 28.2188 22.0175 28.2188 19.6875C28.2188 17.3575 26.33 15.4688 24 15.4688C21.67 15.4688 19.7812 17.3575 19.7812 19.6875C19.7812 22.0175 21.67 23.9062 24 23.9062Z" fill="#1F72E4"/>
<path d="M24 29.5312C29.4281 29.5312 33.8438 25.1156 33.8438 19.6875V2.62406C30.885 0.912187 27.5138 0 24 0C20.4872 0 17.115 0.912187 14.1562 2.62406V19.6875C14.1562 25.1156 18.5719 29.5312 24 29.5312ZM22.5938 7.03125H25.4062V9.84375H22.5938V7.03125ZM24 12.6562C27.8766 12.6562 31.0312 15.81 31.0312 19.6875C31.0312 23.565 27.8766 26.7188 24 26.7188C20.1234 26.7188 16.9688 23.565 16.9688 19.6875C16.9688 15.81 20.1234 12.6562 24 12.6562Z" fill="#1F72E4"/>
<path d="M36.6562 4.59933V19.6875C36.6562 26.6662 30.9788 32.3437 24 32.3437C17.0212 32.3437 11.3438 26.6662 11.3438 19.6875V4.59839C6.91209 8.32636 4.3125 13.7557 4.3125 19.6875C4.3125 30.5788 13.1119 39.375 24 39.375C34.8913 39.375 43.6875 30.5771 43.6875 19.6875C43.6875 13.8255 41.1491 8.38683 36.6562 4.59933Z" fill="#1F72E4"/>
</g>
<defs>
<clipPath id="clip0_1540_6050">
<rect width="48" height="48" fill="white"/>
</clipPath>
</defs>
</svg>
