<svg width="48" height="48" viewBox="0 0 48 48" fill="none" xmlns="http://www.w3.org/2000/svg">
<path d="M23.5 4C19.4455 4 15.482 5.20231 12.1108 7.45487C8.73961 9.70744 6.11207 12.9091 4.56048 16.655C3.00888 20.4009 2.60291 24.5227 3.39391 28.4993C4.18491 32.476 6.13734 36.1287 9.00432 38.9957C11.8713 41.8627 15.524 43.8151 19.5007 44.6061C23.4773 45.3971 27.5991 44.9911 31.345 43.4395C35.0909 41.8879 38.2926 39.2604 40.5451 35.8892C42.7977 32.518 44 28.5545 44 24.5C44.0015 21.8075 43.4722 19.1411 42.4425 16.6533C41.4128 14.1654 39.9029 11.9049 37.999 10.001C36.0951 8.09714 33.8346 6.58718 31.3468 5.55748C28.8589 4.52778 26.1925 3.99853 23.5 4V4ZM21.6364 13.3182C21.6364 12.8239 21.8327 12.3499 22.1822 12.0004C22.5317 11.6509 23.0057 11.4545 23.5 11.4545C23.9943 11.4545 24.4683 11.6509 24.8178 12.0004C25.1673 12.3499 25.3636 12.8239 25.3636 13.3182V20.7727C25.3636 21.267 25.1673 21.741 24.8178 22.0905C24.4683 22.44 23.9943 22.6364 23.5 22.6364C23.0057 22.6364 22.5317 22.44 22.1822 22.0905C21.8327 21.741 21.6364 21.267 21.6364 20.7727V13.3182ZM32.725 33.725C30.2784 36.1716 26.96 37.5461 23.5 37.5461C20.04 37.5461 16.7216 36.1716 14.275 33.725C11.8284 31.2784 10.4539 27.96 10.4539 24.5C10.4539 21.04 11.8284 17.7216 14.275 15.275C14.6242 14.9279 15.0965 14.7331 15.5889 14.7331C16.0812 14.7331 16.5536 14.9279 16.9027 15.275C17.0796 15.4451 17.2203 15.6491 17.3165 15.8749C17.4126 16.1006 17.4621 16.3435 17.4621 16.5889C17.4621 16.8342 17.4126 17.0771 17.3165 17.3029C17.2203 17.5286 17.0796 17.7327 16.9027 17.9027C15.6019 19.2068 14.7168 20.8672 14.3592 22.6741C14.0015 24.481 14.1874 26.3534 14.8934 28.0547C15.5993 29.756 16.7937 31.2099 18.3255 32.2328C19.8574 33.2556 21.658 33.8015 23.5 33.8015C25.342 33.8015 27.1426 33.2556 28.6745 32.2328C30.2063 31.2099 31.4007 29.756 32.1066 28.0547C32.8126 26.3534 32.9985 24.481 32.6409 22.6741C32.2832 20.8672 31.3981 19.2068 30.0973 17.9027C29.9204 17.7327 29.7797 17.5286 29.6835 17.3029C29.5874 17.0771 29.5379 16.8342 29.5379 16.5889C29.5379 16.3435 29.5874 16.1006 29.6835 15.8749C29.7797 15.6491 29.9204 15.4451 30.0973 15.275C30.4465 14.9279 30.9188 14.7331 31.4111 14.7331C31.9035 14.7331 32.3758 14.9279 32.725 15.275C33.9365 16.4864 34.8976 17.9246 35.5532 19.5074C36.2089 21.0902 36.5464 22.7867 36.5464 24.5C36.5464 26.2133 36.2089 27.9098 35.5532 29.4926C34.8976 31.0754 33.9365 32.5136 32.725 33.725Z" fill="#1F72E4"/>
</svg>
