<svg width="30" height="30" viewBox="0 0 30 30" fill="none" xmlns="http://www.w3.org/2000/svg">
<path d="M26.375 6H3.875C3.37772 6 2.90081 6.19754 2.54917 6.54917C2.19754 6.90081 2 7.37772 2 7.875V22.875C2 23.3723 2.19754 23.8492 2.54917 24.2008C2.90081 24.5525 3.37772 24.75 3.875 24.75H26.375C26.8723 24.75 27.3492 24.5525 27.7008 24.2008C28.0525 23.8492 28.25 23.3723 28.25 22.875V7.875C28.25 7.37772 28.0525 6.90081 27.7008 6.54917C27.3492 6.19754 26.8723 6 26.375 6ZM24.3125 7.875L15.125 14.2312L5.9375 7.875H24.3125ZM3.875 22.875V8.72812L14.5906 16.1437C14.7476 16.2526 14.934 16.311 15.125 16.311C15.316 16.311 15.5024 16.2526 15.6594 16.1437L26.375 8.72812V22.875H3.875Z" fill="#C4C4C4"/>
</svg>
