<svg width="52" height="68" viewBox="0 0 52 68" fill="none" xmlns="http://www.w3.org/2000/svg">
<circle cx="26" cy="26" r="26" fill="#1F72E4"/>
<circle cx="26" cy="64" r="4" fill="#1F72E4"/>
<path fill-rule="evenodd" clip-rule="evenodd" d="M33.3333 28.9999C33.3333 28.5579 33.5089 28.134 33.8215 27.8214C34.134 27.5088 34.558 27.3333 35 27.3333C35.442 27.3333 35.866 27.5088 36.1785 27.8214C36.4911 28.134 36.6667 28.5579 36.6667 28.9999C36.6667 29.4419 36.4911 29.8659 36.1785 30.1784C35.866 30.491 35.442 30.6666 35 30.6666C34.558 30.6666 34.134 30.491 33.8215 30.1784C33.5089 29.8659 33.3333 29.4419 33.3333 28.9999ZM22.6667 32.9999H29.3333V31.3333H22.6667V32.9999ZM17 30.3333C16.558 30.3333 16.134 30.1577 15.8215 29.8451C15.5089 29.5325 15.3333 29.1086 15.3333 28.6666C15.3333 28.2246 15.5089 27.8006 15.8215 27.4881C16.134 27.1755 16.558 26.9999 17 26.9999C17.442 26.9999 17.866 27.1755 18.1785 27.4881C18.4911 27.8006 18.6667 28.2246 18.6667 28.6666C18.6667 29.1086 18.4911 29.5325 18.1785 29.8451C17.866 30.1577 17.442 30.3333 17 30.3333V30.3333ZM20.2667 18.4599C20.36 18.1866 20.6133 17.9999 20.8933 17.9999H31.1C31.3867 17.9999 31.64 18.1866 31.7533 18.5199L33.82 23.9999H18.18L20.2667 18.4599V18.4599ZM38 23.5313V22.9999C38 22.7347 37.8946 22.4803 37.7071 22.2928C37.5196 22.1053 37.2652 21.9999 37 21.9999H35.9133L34.2667 17.6333C34.0491 16.966 33.6265 16.3845 33.0591 15.9715C32.4917 15.5585 31.8084 15.3352 31.1067 15.3333H20.8867C19.4467 15.3399 18.18 16.2666 17.7533 17.5799L16.0867 21.9999H15C14.7348 21.9999 14.4804 22.1053 14.2929 22.2928C14.1054 22.4803 14 22.7347 14 22.9999V23.5313C14.0001 23.7588 14.0777 23.9795 14.2201 24.1569C14.3625 24.3344 14.5612 24.458 14.7833 24.5073L15.08 24.5733L14.5667 25.7399C14.1992 26.5693 14.0085 27.4661 14.0067 28.3733L14 36.2533C14 36.8466 14.4867 37.3333 15.08 37.3333H16.92C17.5133 37.3333 18 36.8466 18 36.2533V34.9999H17V33.9999H35V34.9999H34V36.2533C34 36.8466 34.4867 37.3333 35.08 37.3333H36.92C37.5133 37.3333 38 36.8466 38 36.2533V28.3866C38 27.4733 37.8067 26.5666 37.4333 25.7333L36.92 24.5733L37.2167 24.5073C37.4388 24.458 37.6375 24.3344 37.7799 24.1569C37.9223 23.9795 37.9999 23.7588 38 23.5313Z" fill="white"/>
</svg>
