<svg width="294" height="125" viewBox="0 0 294 125" fill="none" xmlns="http://www.w3.org/2000/svg">
<circle cx="141" cy="83" r="26" fill="#1F72E4"/>
<circle cx="141" cy="121" r="4" fill="#1F72E4"/>
<path fill-rule="evenodd" clip-rule="evenodd" d="M148.333 85.9999C148.333 85.5579 148.509 85.134 148.821 84.8214C149.134 84.5088 149.558 84.3333 150 84.3333C150.442 84.3333 150.866 84.5088 151.179 84.8214C151.491 85.134 151.667 85.5579 151.667 85.9999C151.667 86.4419 151.491 86.8659 151.179 87.1784C150.866 87.491 150.442 87.6666 150 87.6666C149.558 87.6666 149.134 87.491 148.821 87.1784C148.509 86.8659 148.333 86.4419 148.333 85.9999ZM137.667 89.9999H144.333V88.3333H137.667V89.9999ZM132 87.3333C131.558 87.3333 131.134 87.1577 130.821 86.8451C130.509 86.5325 130.333 86.1086 130.333 85.6666C130.333 85.2246 130.509 84.8006 130.821 84.4881C131.134 84.1755 131.558 83.9999 132 83.9999C132.442 83.9999 132.866 84.1755 133.179 84.4881C133.491 84.8006 133.667 85.2246 133.667 85.6666C133.667 86.1086 133.491 86.5325 133.179 86.8451C132.866 87.1577 132.442 87.3333 132 87.3333V87.3333ZM135.267 75.4599C135.36 75.1866 135.613 74.9999 135.893 74.9999H146.1C146.387 74.9999 146.64 75.1866 146.753 75.5199L148.82 80.9999H133.18L135.267 75.4599V75.4599ZM153 80.5313V79.9999C153 79.7347 152.895 79.4803 152.707 79.2928C152.52 79.1053 152.265 78.9999 152 78.9999H150.913L149.267 74.6333C149.049 73.966 148.627 73.3845 148.059 72.9715C147.492 72.5585 146.808 72.3352 146.107 72.3333H135.887C134.447 72.3399 133.18 73.2666 132.753 74.5799L131.087 78.9999H130C129.735 78.9999 129.48 79.1053 129.293 79.2928C129.105 79.4803 129 79.7347 129 79.9999V80.5313C129 80.7588 129.078 80.9795 129.22 81.1569C129.363 81.3344 129.561 81.458 129.783 81.5073L130.08 81.5733L129.567 82.7399C129.199 83.5693 129.008 84.4661 129.007 85.3733L129 93.2533C129 93.8466 129.487 94.3333 130.08 94.3333H131.92C132.513 94.3333 133 93.8466 133 93.2533V91.9999H132V90.9999H150V91.9999H149V93.2533C149 93.8466 149.487 94.3333 150.08 94.3333H151.92C152.513 94.3333 153 93.8466 153 93.2533V85.3866C153 84.4733 152.807 83.5666 152.433 82.7333L151.92 81.5733L152.217 81.5073C152.439 81.458 152.637 81.3344 152.78 81.1569C152.922 80.9795 153 80.7588 153 80.5313Z" fill="white"/>
<rect y="12" width="282" height="32" rx="6" fill="#081225"/>
<path d="M17.0568 23.2727H18.3182L21.2841 30.517H21.3864L24.3523 23.2727H25.6136V32H24.625V25.3693H24.5398L21.8125 32H20.858L18.1307 25.3693H18.0455V32H17.0568V23.2727ZM30.6153 32.1364C30.0244 32.1364 29.506 31.9957 29.0599 31.7145C28.6167 31.4332 28.2702 31.0398 28.0202 30.5341C27.773 30.0284 27.6494 29.4375 27.6494 28.7614C27.6494 28.0795 27.773 27.4844 28.0202 26.9759C28.2702 26.4673 28.6167 26.0724 29.0599 25.7912C29.506 25.5099 30.0244 25.3693 30.6153 25.3693C31.2062 25.3693 31.7233 25.5099 32.1665 25.7912C32.6125 26.0724 32.9591 26.4673 33.2062 26.9759C33.4562 27.4844 33.5812 28.0795 33.5812 28.7614C33.5812 29.4375 33.4562 30.0284 33.2062 30.5341C32.9591 31.0398 32.6125 31.4332 32.1665 31.7145C31.7233 31.9957 31.2062 32.1364 30.6153 32.1364ZM30.6153 31.233C31.0642 31.233 31.4335 31.1179 31.7233 30.8878C32.0131 30.6577 32.2275 30.3551 32.3667 29.9801C32.506 29.6051 32.5756 29.1989 32.5756 28.7614C32.5756 28.3239 32.506 27.9162 32.3667 27.5384C32.2275 27.1605 32.0131 26.8551 31.7233 26.6222C31.4335 26.3892 31.0642 26.2727 30.6153 26.2727C30.1665 26.2727 29.7971 26.3892 29.5074 26.6222C29.2176 26.8551 29.0031 27.1605 28.8639 27.5384C28.7247 27.9162 28.6551 28.3239 28.6551 28.7614C28.6551 29.1989 28.7247 29.6051 28.8639 29.9801C29.0031 30.3551 29.2176 30.6577 29.5074 30.8878C29.7971 31.1179 30.1665 31.233 30.6153 31.233ZM38.1355 32.1364C37.5218 32.1364 36.9934 31.9915 36.5503 31.7017C36.1071 31.4119 35.7662 31.0128 35.5275 30.5043C35.2889 29.9957 35.1696 29.4148 35.1696 28.7614C35.1696 28.0966 35.2917 27.5099 35.5361 27.0014C35.7832 26.4901 36.127 26.0909 36.5673 25.804C37.0105 25.5142 37.5275 25.3693 38.1184 25.3693C38.5787 25.3693 38.9934 25.4545 39.3628 25.625C39.7321 25.7955 40.0346 26.0341 40.2704 26.3409C40.5062 26.6477 40.6525 27.0057 40.7093 27.4148H39.7037C39.627 27.1165 39.4565 26.8523 39.1923 26.6222C38.9309 26.3892 38.5787 26.2727 38.1355 26.2727C37.7434 26.2727 37.3997 26.375 37.1042 26.5795C36.8116 26.7812 36.5829 27.0668 36.4182 27.4361C36.2562 27.8026 36.1753 28.233 36.1753 28.7273C36.1753 29.233 36.2548 29.6733 36.4139 30.0483C36.5758 30.4233 36.8031 30.7145 37.0957 30.9219C37.3912 31.1293 37.7378 31.233 38.1355 31.233C38.3968 31.233 38.6341 31.1875 38.8471 31.0966C39.0602 31.0057 39.2406 30.875 39.3883 30.7045C39.5361 30.5341 39.6412 30.3295 39.7037 30.0909H40.7093C40.6525 30.4773 40.5119 30.8253 40.2875 31.1349C40.0659 31.4418 39.7718 31.6861 39.4054 31.8679C39.0417 32.0469 38.6184 32.1364 38.1355 32.1364ZM42.5395 32V25.4545H43.5452V28.3011H44.21L46.5622 25.4545H47.8577L45.2157 28.608L47.8918 32H46.5963L44.4486 29.2386H43.5452V32H42.5395ZM49.3448 32V25.4545H52.021C52.7255 25.4545 53.2852 25.6136 53.6999 25.9318C54.1147 26.25 54.3221 26.6705 54.3221 27.1932C54.3221 27.5909 54.2042 27.8991 53.9684 28.1179C53.7326 28.3338 53.4301 28.4801 53.0607 28.5568C53.3022 28.5909 53.5366 28.6761 53.7639 28.8125C53.994 28.9489 54.1843 29.1364 54.3349 29.375C54.4855 29.6108 54.5607 29.9006 54.5607 30.2443C54.5607 30.5795 54.4755 30.8793 54.3051 31.1435C54.1346 31.4077 53.8903 31.6165 53.5721 31.7699C53.2539 31.9233 52.8732 32 52.4301 32H49.3448ZM50.2994 31.0795H52.4301C52.7766 31.0795 53.048 30.9972 53.244 30.8324C53.44 30.6676 53.538 30.4432 53.538 30.1591C53.538 29.821 53.44 29.5554 53.244 29.3622C53.048 29.1662 52.7766 29.0682 52.4301 29.0682H50.2994V31.0795ZM50.2994 28.1989H52.021C52.2909 28.1989 52.5224 28.1619 52.7156 28.0881C52.9087 28.0114 53.0565 27.9034 53.1587 27.7642C53.2639 27.6222 53.3164 27.4545 53.3164 27.2614C53.3164 26.9858 53.2014 26.7699 52.9712 26.6136C52.7411 26.4545 52.4244 26.375 52.021 26.375H50.2994V28.1989ZM58.3692 32.1534C57.9545 32.1534 57.5781 32.0753 57.24 31.919C56.9019 31.7599 56.6335 31.5312 56.4346 31.233C56.2357 30.9318 56.1363 30.5682 56.1363 30.142C56.1363 29.767 56.2102 29.4631 56.3579 29.2301C56.5056 28.9943 56.7031 28.8097 56.9502 28.6761C57.1974 28.5426 57.4701 28.4432 57.7684 28.3778C58.0695 28.3097 58.3721 28.2557 58.6761 28.2159C59.0738 28.1648 59.3962 28.1264 59.6434 28.1009C59.8934 28.0724 60.0752 28.0256 60.1888 27.9602C60.3053 27.8949 60.3636 27.7812 60.3636 27.6193V27.5852C60.3636 27.1648 60.2485 26.8381 60.0184 26.6051C59.7911 26.3722 59.446 26.2557 58.9829 26.2557C58.5028 26.2557 58.1263 26.3608 57.8536 26.571C57.5809 26.7812 57.3891 27.0057 57.2783 27.2443L56.3238 26.9034C56.4942 26.5057 56.7215 26.196 57.0056 25.9744C57.2925 25.75 57.605 25.5937 57.9431 25.5057C58.284 25.4148 58.6192 25.3693 58.9488 25.3693C59.159 25.3693 59.4005 25.3949 59.6732 25.446C59.9488 25.4943 60.2144 25.5952 60.4701 25.7486C60.7286 25.902 60.9431 26.1335 61.1136 26.4432C61.284 26.7528 61.3692 27.1676 61.3692 27.6875V32H60.3636V31.1136H60.3124C60.2442 31.2557 60.1306 31.4077 59.9715 31.5696C59.8124 31.7315 59.6008 31.8693 59.3366 31.983C59.0724 32.0966 58.7499 32.1534 58.3692 32.1534ZM58.5227 31.25C58.9204 31.25 59.2556 31.1719 59.5283 31.0156C59.8039 30.8594 60.0113 30.6577 60.1505 30.4105C60.2925 30.1634 60.3636 29.9034 60.3636 29.6307V28.7102C60.321 28.7614 60.2272 28.8082 60.0823 28.8509C59.9403 28.8906 59.7755 28.9261 59.588 28.9574C59.4033 28.9858 59.2229 29.0114 59.0468 29.0341C58.8735 29.054 58.7329 29.071 58.6249 29.0852C58.3636 29.1193 58.1192 29.1747 57.892 29.2514C57.6675 29.3253 57.4857 29.4375 57.3465 29.5881C57.2102 29.7358 57.142 29.9375 57.142 30.1932C57.142 30.5426 57.2712 30.8068 57.5298 30.9858C57.7911 31.1619 58.1221 31.25 58.5227 31.25ZM65.0648 30.8068L64.9966 31.267C64.9484 31.5909 64.8745 31.9375 64.7751 32.3068C64.6785 32.6761 64.5776 33.0241 64.4725 33.3509C64.3674 33.6776 64.2807 33.9375 64.2126 34.1307H63.4455C63.4824 33.9489 63.5307 33.7088 63.5904 33.4105C63.6501 33.1122 63.7097 32.7784 63.7694 32.4091C63.8319 32.0426 63.883 31.6676 63.9228 31.2841L63.9739 30.8068H65.0648ZM71.6708 34.4545C71.5004 34.4545 71.3484 34.4403 71.2149 34.4119C71.0814 34.3864 70.989 34.3608 70.9379 34.3352L71.1936 33.4489C71.4379 33.5114 71.6538 33.5341 71.8413 33.517C72.0288 33.5 72.195 33.4162 72.3399 33.2656C72.4876 33.1179 72.6225 32.8778 72.7447 32.5455L72.9322 32.0341L70.5117 25.4545H71.6027L73.4095 30.6705H73.4777L75.2845 25.4545H76.3754L73.597 32.9545C73.472 33.2926 73.3171 33.5724 73.1325 33.794C72.9478 34.0185 72.7333 34.1847 72.489 34.2926C72.2475 34.4006 71.9748 34.4545 71.6708 34.4545ZM76.9325 32V31.0625H77.1711C77.3671 31.0625 77.5305 31.0241 77.6612 30.9474C77.7918 30.8679 77.897 30.7301 77.9765 30.5341C78.0589 30.3352 78.1214 30.0597 78.164 29.7074C78.2095 29.3523 78.2421 28.9006 78.262 28.3523L78.3813 25.4545H82.745V32H81.7393V26.392H79.3359L79.2336 28.7273C79.2109 29.2642 79.1626 29.7372 79.0887 30.1463C79.0177 30.5526 78.9083 30.8935 78.7606 31.169C78.6157 31.4446 78.4225 31.652 78.1811 31.7912C77.9396 31.9304 77.637 32 77.2734 32H76.9325ZM85.6831 32.0682C85.4729 32.0682 85.2925 31.9929 85.1419 31.8423C84.9913 31.6918 84.916 31.5114 84.916 31.3011C84.916 31.0909 84.9913 30.9105 85.1419 30.7599C85.2925 30.6094 85.4729 30.5341 85.6831 30.5341C85.8933 30.5341 86.0737 30.6094 86.2243 30.7599C86.3749 30.9105 86.4501 31.0909 86.4501 31.3011C86.4501 31.4403 86.4146 31.5682 86.3436 31.6847C86.2754 31.8011 86.1831 31.8949 86.0666 31.9659C85.953 32.0341 85.8251 32.0682 85.6831 32.0682ZM91.7362 32V31.0284H91.9919C92.3555 31.0284 92.6382 30.9119 92.8399 30.679C93.0416 30.446 93.1865 30.0696 93.2745 29.5497C93.3655 29.0298 93.4265 28.3409 93.4578 27.483L93.6112 23.2727H98.9294V32H97.8726V24.2102H94.6169L94.4805 27.6875C94.4464 28.6023 94.3626 29.3807 94.2291 30.0227C94.0956 30.6648 93.8612 31.1548 93.526 31.4929C93.1907 31.831 92.7021 32 92.0601 32H91.7362ZM103.924 32.1364C103.333 32.1364 102.814 31.9957 102.368 31.7145C101.925 31.4332 101.578 31.0398 101.328 30.5341C101.081 30.0284 100.958 29.4375 100.958 28.7614C100.958 28.0795 101.081 27.4844 101.328 26.9759C101.578 26.4673 101.925 26.0724 102.368 25.7912C102.814 25.5099 103.333 25.3693 103.924 25.3693C104.515 25.3693 105.032 25.5099 105.475 25.7912C105.921 26.0724 106.267 26.4673 106.515 26.9759C106.765 27.4844 106.89 28.0795 106.89 28.7614C106.89 29.4375 106.765 30.0284 106.515 30.5341C106.267 31.0398 105.921 31.4332 105.475 31.7145C105.032 31.9957 104.515 32.1364 103.924 32.1364ZM103.924 31.233C104.372 31.233 104.742 31.1179 105.032 30.8878C105.321 30.6577 105.536 30.3551 105.675 29.9801C105.814 29.6051 105.884 29.1989 105.884 28.7614C105.884 28.3239 105.814 27.9162 105.675 27.5384C105.536 27.1605 105.321 26.8551 105.032 26.6222C104.742 26.3892 104.372 26.2727 103.924 26.2727C103.475 26.2727 103.105 26.3892 102.816 26.6222C102.526 26.8551 102.311 27.1605 102.172 27.5384C102.033 27.9162 101.963 28.3239 101.963 28.7614C101.963 29.1989 102.033 29.6051 102.172 29.9801C102.311 30.3551 102.526 30.6577 102.816 30.8878C103.105 31.1179 103.475 31.233 103.924 31.233ZM113.643 23L114.154 23.6136C113.955 23.8068 113.725 23.9418 113.464 24.0185C113.202 24.0952 112.907 24.142 112.577 24.1591C112.248 24.1761 111.881 24.1932 111.478 24.2102C111.023 24.2273 110.647 24.3381 110.349 24.5426C110.05 24.7472 109.82 25.0426 109.658 25.429C109.496 25.8153 109.393 26.2898 109.347 26.8523H109.432C109.654 26.4432 109.961 26.142 110.353 25.9489C110.745 25.7557 111.165 25.6591 111.614 25.6591C112.126 25.6591 112.586 25.7784 112.995 26.017C113.404 26.2557 113.728 26.6094 113.966 27.0781C114.205 27.5469 114.324 28.125 114.324 28.8125C114.324 29.4972 114.202 30.0881 113.958 30.5852C113.716 31.0824 113.377 31.4659 112.94 31.7358C112.505 32.0028 111.995 32.1364 111.41 32.1364C110.824 32.1364 110.312 31.9986 109.871 31.723C109.431 31.4446 109.089 31.0327 108.844 30.4872C108.6 29.9389 108.478 29.2614 108.478 28.4545V27.7557C108.478 26.2983 108.725 25.1932 109.219 24.4403C109.716 23.6875 110.464 23.2983 111.461 23.2727C111.813 23.2614 112.127 23.2585 112.403 23.2642C112.678 23.2699 112.918 23.2571 113.123 23.2259C113.327 23.1946 113.501 23.1193 113.643 23ZM111.41 31.233C111.805 31.233 112.144 31.1335 112.428 30.9347C112.715 30.7358 112.935 30.456 113.089 30.0952C113.242 29.7315 113.319 29.304 113.319 28.8125C113.319 28.3352 113.241 27.929 113.084 27.5938C112.931 27.2585 112.711 27.0028 112.424 26.8267C112.137 26.6506 111.793 26.5625 111.393 26.5625C111.1 26.5625 110.837 26.6122 110.604 26.7116C110.371 26.8111 110.172 26.9574 110.008 27.1506C109.843 27.3437 109.715 27.5795 109.624 27.858C109.536 28.1364 109.489 28.4545 109.484 28.8125C109.484 29.5455 109.655 30.1321 109.999 30.5724C110.343 31.0128 110.813 31.233 111.41 31.233ZM118.149 32.1534C117.734 32.1534 117.358 32.0753 117.02 31.919C116.682 31.7599 116.413 31.5312 116.214 31.233C116.015 30.9318 115.916 30.5682 115.916 30.142C115.916 29.767 115.99 29.4631 116.138 29.2301C116.285 28.9943 116.483 28.8097 116.73 28.6761C116.977 28.5426 117.25 28.4432 117.548 28.3778C117.849 28.3097 118.152 28.2557 118.456 28.2159C118.853 28.1648 119.176 28.1264 119.423 28.1009C119.673 28.0724 119.855 28.0256 119.969 27.9602C120.085 27.8949 120.143 27.7812 120.143 27.6193V27.5852C120.143 27.1648 120.028 26.8381 119.798 26.6051C119.571 26.3722 119.226 26.2557 118.763 26.2557C118.282 26.2557 117.906 26.3608 117.633 26.571C117.361 26.7812 117.169 27.0057 117.058 27.2443L116.103 26.9034C116.274 26.5057 116.501 26.196 116.785 25.9744C117.072 25.75 117.385 25.5937 117.723 25.5057C118.064 25.4148 118.399 25.3693 118.728 25.3693C118.939 25.3693 119.18 25.3949 119.453 25.446C119.728 25.4943 119.994 25.5952 120.25 25.7486C120.508 25.902 120.723 26.1335 120.893 26.4432C121.064 26.7528 121.149 27.1676 121.149 27.6875V32H120.143V31.1136H120.092C120.024 31.2557 119.91 31.4077 119.751 31.5696C119.592 31.7315 119.38 31.8693 119.116 31.983C118.852 32.0966 118.53 32.1534 118.149 32.1534ZM118.302 31.25C118.7 31.25 119.035 31.1719 119.308 31.0156C119.584 30.8594 119.791 30.6577 119.93 30.4105C120.072 30.1634 120.143 29.9034 120.143 29.6307V28.7102C120.101 28.7614 120.007 28.8082 119.862 28.8509C119.72 28.8906 119.555 28.9261 119.368 28.9574C119.183 28.9858 119.003 29.0114 118.826 29.0341C118.653 29.054 118.513 29.071 118.405 29.0852C118.143 29.1193 117.899 29.1747 117.672 29.2514C117.447 29.3253 117.265 29.4375 117.126 29.5881C116.99 29.7358 116.922 29.9375 116.922 30.1932C116.922 30.5426 117.051 30.8068 117.309 30.9858C117.571 31.1619 117.902 31.25 118.302 31.25ZM128.39 25.4545V32H127.384V25.4545H128.39ZM127.998 28.5739V29.5114C127.771 29.5966 127.545 29.6719 127.32 29.7372C127.096 29.7997 126.86 29.8494 126.613 29.8864C126.366 29.9205 126.095 29.9375 125.799 29.9375C125.058 29.9375 124.462 29.7372 124.014 29.3366C123.568 28.9361 123.345 28.3352 123.345 27.5341V25.4375H124.35V27.5341C124.35 27.8693 124.414 28.1449 124.542 28.3608C124.67 28.5767 124.843 28.7372 125.062 28.8423C125.281 28.9474 125.526 29 125.799 29C126.225 29 126.61 28.9616 126.954 28.8849C127.3 28.8054 127.648 28.7017 127.998 28.5739ZM133.339 32.1364C132.709 32.1364 132.165 31.9972 131.707 31.7188C131.253 31.4375 130.902 31.0455 130.655 30.5426C130.41 30.0369 130.288 29.4489 130.288 28.7784C130.288 28.108 130.41 27.517 130.655 27.0057C130.902 26.4915 131.246 26.0909 131.686 25.804C132.129 25.5142 132.646 25.3693 133.237 25.3693C133.578 25.3693 133.915 25.4261 134.247 25.5398C134.58 25.6534 134.882 25.8381 135.155 26.0938C135.428 26.3466 135.645 26.6818 135.807 27.0994C135.969 27.517 136.05 28.0312 136.05 28.642V29.0682H131.004V28.1989H135.027C135.027 27.8295 134.953 27.5 134.805 27.2102C134.66 26.9205 134.453 26.6918 134.183 26.5241C133.916 26.3565 133.601 26.2727 133.237 26.2727C132.837 26.2727 132.49 26.3722 132.197 26.571C131.908 26.767 131.685 27.0227 131.528 27.3381C131.372 27.6534 131.294 27.9915 131.294 28.3523V28.9318C131.294 29.4261 131.379 29.8452 131.55 30.1889C131.723 30.5298 131.963 30.7898 132.27 30.9688C132.577 31.1449 132.933 31.233 133.339 31.233C133.604 31.233 133.842 31.196 134.055 31.1222C134.271 31.0455 134.457 30.9318 134.614 30.7812C134.77 30.6278 134.891 30.4375 134.976 30.2102L135.947 30.483C135.845 30.8125 135.673 31.1023 135.432 31.3523C135.19 31.5994 134.892 31.7926 134.537 31.9318C134.182 32.0682 133.783 32.1364 133.339 32.1364ZM137.94 32V25.4545H140.616C141.32 25.4545 141.88 25.6136 142.295 25.9318C142.709 26.25 142.917 26.6705 142.917 27.1932C142.917 27.5909 142.799 27.8991 142.563 28.1179C142.327 28.3338 142.025 28.4801 141.655 28.5568C141.897 28.5909 142.131 28.6761 142.359 28.8125C142.589 28.9489 142.779 29.1364 142.93 29.375C143.08 29.6108 143.155 29.9006 143.155 30.2443C143.155 30.5795 143.07 30.8793 142.9 31.1435C142.729 31.4077 142.485 31.6165 142.167 31.7699C141.849 31.9233 141.468 32 141.025 32H137.94ZM138.894 31.0795H141.025C141.371 31.0795 141.643 30.9972 141.839 30.8324C142.035 30.6676 142.133 30.4432 142.133 30.1591C142.133 29.821 142.035 29.5554 141.839 29.3622C141.643 29.1662 141.371 29.0682 141.025 29.0682H138.894V31.0795ZM138.894 28.1989H140.616C140.886 28.1989 141.117 28.1619 141.31 28.0881C141.503 28.0114 141.651 27.9034 141.753 27.7642C141.859 27.6222 141.911 27.4545 141.911 27.2614C141.911 26.9858 141.796 26.7699 141.566 26.6136C141.336 26.4545 141.019 26.375 140.616 26.375H138.894V28.1989ZM147.697 32.1364C147.083 32.1364 146.555 31.9915 146.112 31.7017C145.668 31.4119 145.328 31.0128 145.089 30.5043C144.85 29.9957 144.731 29.4148 144.731 28.7614C144.731 28.0966 144.853 27.5099 145.097 27.0014C145.345 26.4901 145.688 26.0909 146.129 25.804C146.572 25.5142 147.089 25.3693 147.68 25.3693C148.14 25.3693 148.555 25.4545 148.924 25.625C149.293 25.7955 149.596 26.0341 149.832 26.3409C150.068 26.6477 150.214 27.0057 150.271 27.4148H149.265C149.188 27.1165 149.018 26.8523 148.754 26.6222C148.492 26.3892 148.14 26.2727 147.697 26.2727C147.305 26.2727 146.961 26.375 146.666 26.5795C146.373 26.7812 146.144 27.0668 145.98 27.4361C145.818 27.8026 145.737 28.233 145.737 28.7273C145.737 29.233 145.816 29.6733 145.975 30.0483C146.137 30.4233 146.364 30.7145 146.657 30.9219C146.953 31.1293 147.299 31.233 147.697 31.233C147.958 31.233 148.195 31.1875 148.409 31.0966C148.622 31.0057 148.802 30.875 148.95 30.7045C149.097 30.5341 149.203 30.3295 149.265 30.0909H150.271C150.214 30.4773 150.073 30.8253 149.849 31.1349C149.627 31.4418 149.333 31.6861 148.967 31.8679C148.603 32.0469 148.18 32.1364 147.697 32.1364ZM152.101 32V25.4545H153.107V28.3011H153.771L156.124 25.4545H157.419L154.777 28.608L157.453 32H156.158L154.01 29.2386H153.107V32H152.101ZM161.296 32.1364C160.705 32.1364 160.186 31.9957 159.74 31.7145C159.297 31.4332 158.951 31.0398 158.701 30.5341C158.453 30.0284 158.33 29.4375 158.33 28.7614C158.33 28.0795 158.453 27.4844 158.701 26.9759C158.951 26.4673 159.297 26.0724 159.74 25.7912C160.186 25.5099 160.705 25.3693 161.296 25.3693C161.887 25.3693 162.404 25.5099 162.847 25.7912C163.293 26.0724 163.64 26.4673 163.887 26.9759C164.137 27.4844 164.262 28.0795 164.262 28.7614C164.262 29.4375 164.137 30.0284 163.887 30.5341C163.64 31.0398 163.293 31.4332 162.847 31.7145C162.404 31.9957 161.887 32.1364 161.296 32.1364ZM161.296 31.233C161.745 31.233 162.114 31.1179 162.404 30.8878C162.694 30.6577 162.908 30.3551 163.047 29.9801C163.186 29.6051 163.256 29.1989 163.256 28.7614C163.256 28.3239 163.186 27.9162 163.047 27.5384C162.908 27.1605 162.694 26.8551 162.404 26.6222C162.114 26.3892 161.745 26.2727 161.296 26.2727C160.847 26.2727 160.478 26.3892 160.188 26.6222C159.898 26.8551 159.684 27.1605 159.544 27.5384C159.405 27.9162 159.336 28.3239 159.336 28.7614C159.336 29.1989 159.405 29.6051 159.544 29.9801C159.684 30.3551 159.898 30.6577 160.188 30.8878C160.478 31.1179 160.847 31.233 161.296 31.233ZM170.197 25.4545V26.392H167.163V32H166.157V25.4545H170.197ZM174.344 32.1364C173.753 32.1364 173.235 31.9957 172.789 31.7145C172.345 31.4332 171.999 31.0398 171.749 30.5341C171.502 30.0284 171.378 29.4375 171.378 28.7614C171.378 28.0795 171.502 27.4844 171.749 26.9759C171.999 26.4673 172.345 26.0724 172.789 25.7912C173.235 25.5099 173.753 25.3693 174.344 25.3693C174.935 25.3693 175.452 25.5099 175.895 25.7912C176.341 26.0724 176.688 26.4673 176.935 26.9759C177.185 27.4844 177.31 28.0795 177.31 28.7614C177.31 29.4375 177.185 30.0284 176.935 30.5341C176.688 31.0398 176.341 31.4332 175.895 31.7145C175.452 31.9957 174.935 32.1364 174.344 32.1364ZM174.344 31.233C174.793 31.233 175.162 31.1179 175.452 30.8878C175.742 30.6577 175.956 30.3551 176.095 29.9801C176.235 29.6051 176.304 29.1989 176.304 28.7614C176.304 28.3239 176.235 27.9162 176.095 27.5384C175.956 27.1605 175.742 26.8551 175.452 26.6222C175.162 26.3892 174.793 26.2727 174.344 26.2727C173.895 26.2727 173.526 26.3892 173.236 26.6222C172.946 26.8551 172.732 27.1605 172.592 27.5384C172.453 27.9162 172.384 28.3239 172.384 28.7614C172.384 29.1989 172.453 29.6051 172.592 29.9801C172.732 30.3551 172.946 30.6577 173.236 30.8878C173.526 31.1179 173.895 31.233 174.344 31.233ZM180.705 30.8068L180.637 31.267C180.589 31.5909 180.515 31.9375 180.415 32.3068C180.319 32.6761 180.218 33.0241 180.113 33.3509C180.008 33.6776 179.921 33.9375 179.853 34.1307H179.086C179.123 33.9489 179.171 33.7088 179.231 33.4105C179.29 33.1122 179.35 32.7784 179.41 32.4091C179.472 32.0426 179.523 31.6676 179.563 31.2841L179.614 30.8068H180.705ZM185.964 33.875V31.0625H186.51C186.643 30.9233 186.758 30.7727 186.855 30.6108C186.952 30.4489 187.035 30.2571 187.106 30.0355C187.18 29.8111 187.243 29.5384 187.294 29.2173C187.345 28.8935 187.391 28.5028 187.43 28.0455L187.652 25.4545H191.811V31.0625H192.817V33.875H191.811V32H186.97V33.875H185.964ZM187.652 31.0625H190.805V26.392H188.589L188.419 28.0455C188.348 28.7301 188.26 29.3281 188.155 29.8395C188.05 30.3509 187.882 30.7585 187.652 31.0625ZM195.245 32.0682C195.034 32.0682 194.854 31.9929 194.703 31.8423C194.553 31.6918 194.477 31.5114 194.477 31.3011C194.477 31.0909 194.553 30.9105 194.703 30.7599C194.854 30.6094 195.034 30.5341 195.245 30.5341C195.455 30.5341 195.635 30.6094 195.786 30.7599C195.936 30.9105 196.012 31.0909 196.012 31.3011C196.012 31.4403 195.976 31.5682 195.905 31.6847C195.837 31.8011 195.745 31.8949 195.628 31.9659C195.514 32.0341 195.387 32.0682 195.245 32.0682ZM204.962 23.2727V32H203.906V24.3807H203.854L201.724 25.7955V24.7216L203.906 23.2727H204.962ZM210.901 23.2727V32H209.844V24.3807H209.793L207.662 25.7955V24.7216L209.844 23.2727H210.901ZM216.617 32.1193C215.975 32.1193 215.428 31.9446 214.976 31.5952C214.525 31.2429 214.18 30.733 213.941 30.0653C213.702 29.3949 213.583 28.5852 213.583 27.6364C213.583 26.6932 213.702 25.8878 213.941 25.2202C214.182 24.5497 214.529 24.0384 214.981 23.6861C215.435 23.331 215.981 23.1534 216.617 23.1534C217.253 23.1534 217.797 23.331 218.249 23.6861C218.704 24.0384 219.05 24.5497 219.289 25.2202C219.53 25.8878 219.651 26.6932 219.651 27.6364C219.651 28.5852 219.532 29.3949 219.293 30.0653C219.055 30.733 218.709 31.2429 218.258 31.5952C217.806 31.9446 217.259 32.1193 216.617 32.1193ZM216.617 31.1818C217.253 31.1818 217.748 30.875 218.1 30.2614C218.452 29.6477 218.628 28.7727 218.628 27.6364C218.628 26.8807 218.547 26.2372 218.386 25.706C218.226 25.1747 217.996 24.7699 217.695 24.4915C217.397 24.2131 217.037 24.0739 216.617 24.0739C215.986 24.0739 215.493 24.3849 215.138 25.0071C214.783 25.6264 214.606 26.5028 214.606 27.6364C214.606 28.392 214.685 29.0341 214.844 29.5625C215.003 30.0909 215.232 30.4929 215.53 30.7685C215.832 31.044 216.194 31.1818 216.617 31.1818ZM222.843 30.8068L222.775 31.267C222.726 31.5909 222.652 31.9375 222.553 32.3068C222.456 32.6761 222.356 33.0241 222.25 33.3509C222.145 33.6776 222.059 33.9375 221.991 34.1307H221.223C221.26 33.9489 221.309 33.7088 221.368 33.4105C221.428 33.1122 221.488 32.7784 221.547 32.4091C221.61 32.0426 221.661 31.6676 221.701 31.2841L221.752 30.8068H222.843ZM228.801 32V25.4545H229.807V28.3011H230.472L232.824 25.4545H234.119L231.477 28.608L234.153 32H232.858L230.71 29.2386H229.807V32H228.801ZM237.996 32.1364C237.405 32.1364 236.887 31.9957 236.441 31.7145C235.997 31.4332 235.651 31.0398 235.401 30.5341C235.154 30.0284 235.03 29.4375 235.03 28.7614C235.03 28.0795 235.154 27.4844 235.401 26.9759C235.651 26.4673 235.997 26.0724 236.441 25.7912C236.887 25.5099 237.405 25.3693 237.996 25.3693C238.587 25.3693 239.104 25.5099 239.547 25.7912C239.993 26.0724 240.34 26.4673 240.587 26.9759C240.837 27.4844 240.962 28.0795 240.962 28.7614C240.962 29.4375 240.837 30.0284 240.587 30.5341C240.34 31.0398 239.993 31.4332 239.547 31.7145C239.104 31.9957 238.587 32.1364 237.996 32.1364ZM237.996 31.233C238.445 31.233 238.814 31.1179 239.104 30.8878C239.394 30.6577 239.608 30.3551 239.747 29.9801C239.887 29.6051 239.956 29.1989 239.956 28.7614C239.956 28.3239 239.887 27.9162 239.747 27.5384C239.608 27.1605 239.394 26.8551 239.104 26.6222C238.814 26.3892 238.445 26.2727 237.996 26.2727C237.547 26.2727 237.178 26.3892 236.888 26.6222C236.598 26.8551 236.384 27.1605 236.245 27.5384C236.105 27.9162 236.036 28.3239 236.036 28.7614C236.036 29.1989 236.105 29.6051 236.245 29.9801C236.384 30.3551 236.598 30.6577 236.888 30.8878C237.178 31.1179 237.547 31.233 237.996 31.233ZM242.857 34.4545V25.4545H243.829V26.4943H243.948C244.022 26.3807 244.124 26.2358 244.255 26.0597C244.388 25.8807 244.579 25.7216 244.826 25.5824C245.076 25.4403 245.414 25.3693 245.84 25.3693C246.391 25.3693 246.877 25.5071 247.297 25.7827C247.718 26.0582 248.046 26.4489 248.282 26.9545C248.518 27.4602 248.635 28.0568 248.635 28.7443C248.635 29.4375 248.518 30.0384 248.282 30.5469C248.046 31.0526 247.719 31.4446 247.302 31.723C246.884 31.9986 246.402 32.1364 245.857 32.1364C245.437 32.1364 245.1 32.0668 244.847 31.9276C244.594 31.7855 244.4 31.625 244.263 31.446C244.127 31.2642 244.022 31.1136 243.948 30.9943H243.863V34.4545H242.857ZM243.846 28.7273C243.846 29.2216 243.918 29.6577 244.063 30.0355C244.208 30.4105 244.42 30.7045 244.698 30.9176C244.976 31.1278 245.317 31.233 245.721 31.233C246.141 31.233 246.492 31.1222 246.773 30.9006C247.057 30.6761 247.27 30.375 247.412 29.9972C247.557 29.6165 247.63 29.1932 247.63 28.7273C247.63 28.267 247.559 27.8523 247.417 27.483C247.277 27.1108 247.066 26.8168 246.782 26.6009C246.5 26.3821 246.147 26.2727 245.721 26.2727C245.312 26.2727 244.968 26.3764 244.689 26.5838C244.411 26.7884 244.201 27.0753 244.059 27.4446C243.917 27.8111 243.846 28.2386 243.846 28.7273ZM250.53 32V25.4545H255.677V32H254.672V26.392H251.535V32H250.53ZM258.607 32.0682C258.397 32.0682 258.216 31.9929 258.066 31.8423C257.915 31.6918 257.84 31.5114 257.84 31.3011C257.84 31.0909 257.915 30.9105 258.066 30.7599C258.216 30.6094 258.397 30.5341 258.607 30.5341C258.817 30.5341 258.997 30.6094 259.148 30.7599C259.299 30.9105 259.374 31.0909 259.374 31.3011C259.374 31.4403 259.338 31.5682 259.267 31.6847C259.199 31.8011 259.107 31.8949 258.99 31.9659C258.877 32.0341 258.749 32.0682 258.607 32.0682ZM263.547 23.2727V32H262.49V24.3807H262.439L260.308 25.7955V24.7216L262.49 23.2727H263.547Z" fill="white"/>
<rect x="270" width="24" height="24" rx="12" fill="white"/>
<path d="M277.757 7.75729L286.243 16.2426M277.757 16.2426L286.243 7.75729" stroke="#081225" stroke-width="1.5"/>
</svg>
