<svg width="18" height="18" viewBox="0 0 18 18" fill="none" xmlns="http://www.w3.org/2000/svg">
<path d="M9.65381 3.79367C12.0388 4.09367 13.9063 5.96117 14.2063 8.34617C14.2513 8.72867 14.5738 9.00617 14.9488 9.00617C14.9788 9.00617 15.0088 9.00617 15.0388 8.99867C15.4513 8.94617 15.7438 8.57117 15.6913 8.15867C15.3088 5.09117 12.9013 2.68367 9.83381 2.30117C9.42131 2.25617 9.04631 2.54867 9.00131 2.96117C8.94881 3.37367 9.24131 3.74867 9.65381 3.79367ZM9.93881 5.37617C9.54131 5.27117 9.12881 5.51117 9.02381 5.91617C8.91881 6.32117 9.15881 6.72617 9.56381 6.83117C10.3513 7.03367 10.9663 7.64867 11.1763 8.44367C11.2663 8.78117 11.5663 9.00617 11.9038 9.00617C11.9638 9.00617 12.0313 8.99867 12.0913 8.98367C12.4888 8.87867 12.7288 8.46617 12.6313 8.06867C12.2788 6.74117 11.2513 5.71367 9.93881 5.37617ZM14.4163 11.4512L12.5113 11.2337C12.0538 11.1812 11.6038 11.3387 11.2813 11.6612L9.90131 13.0412C7.77881 11.9612 6.03881 10.2287 4.9588 8.09867L6.3463 6.71117C6.66881 6.38867 6.8263 5.93867 6.7738 5.48117L6.5563 3.59117C6.4663 2.83367 5.82881 2.26367 5.06381 2.26367H3.76631C2.91881 2.26367 2.2138 2.96867 2.2663 3.81617C2.6638 10.2212 7.78631 15.3362 14.1838 15.7337C15.0313 15.7862 15.7363 15.0812 15.7363 14.2337V12.9362C15.7438 12.1787 15.1738 11.5412 14.4163 11.4512Z" fill="#BABABA"/>
</svg>
