<svg width="206" height="36" viewBox="0 0 206 36" fill="none" xmlns="http://www.w3.org/2000/svg">
<path fill-rule="evenodd" clip-rule="evenodd" d="M4.66072 14.1598V9.82053H0.658936V35.0356H4.90179V20.5238C4.886 18.7985 5.48412 17.1237 6.58929 15.7988C7.74644 14.4006 9.38572 13.7256 11.5072 13.7256C11.7493 13.7141 11.9919 13.7303 12.2304 13.7738C12.4581 13.7822 12.6844 13.8145 12.9054 13.8702V9.38563L11.9411 9.2892C11.815 9.25702 11.6855 9.24082 11.5554 9.24099C9.89344 9.24489 8.2999 9.90309 7.11965 11.0731C5.81786 12.2785 4.9979 13.3392 4.66072 14.1598ZM32.2869 10.4955C30.6699 9.68478 28.8885 9.25591 27.0797 9.24196C23.5119 9.24196 20.6675 10.5437 18.4976 13.0509C16.28 15.5571 15.1714 18.8845 15.1714 22.9345C15.1714 27.0324 16.2804 30.2145 18.45 32.4809C19.461 33.5948 20.6976 34.4806 22.0777 35.0791C23.4577 35.6777 24.9495 35.9754 26.4536 35.9523C27.6057 35.9569 28.7545 35.8275 29.8768 35.5666C31.3436 35.2234 32.719 34.5674 33.9089 33.6437C35.0988 32.7199 36.0753 31.5501 36.7714 30.2142C37.3234 29.2649 37.6838 28.2165 37.8321 27.1285H33.6857C33.3803 28.2147 32.8369 29.2194 32.095 30.0696C30.745 31.516 29.0093 32.2389 26.7914 32.2389C24.4289 32.2389 22.645 31.4674 21.5364 29.9246C20.4278 28.3817 19.8 26.3571 19.7036 23.802H38.2179C38.2179 21.2467 38.0732 19.3663 37.8321 18.2092C37.5797 16.6305 37.0053 15.1207 36.1446 13.7735C35.2755 12.4241 33.9753 11.3634 32.2869 10.4955ZM33.8297 20.4277H19.8476C19.847 18.4332 20.5857 16.5093 21.9208 15.0277C22.5533 14.3615 23.3168 13.8333 24.1632 13.4764C25.0096 13.1194 25.9208 12.9414 26.8393 12.9535C29.5393 12.9535 31.5158 13.966 32.625 15.991C33.3 17.0999 33.6864 18.5955 33.8297 20.4277ZM65.2179 12.4713C63.3375 10.0124 60.6375 8.80706 57.3107 8.80706C55.4304 8.80706 53.8875 9.19278 52.6822 9.9642C51.5787 10.6879 50.6285 11.6217 49.8857 12.7124V0.37085H43.1839V35.0356H49.7411V31.8053C50.6572 33.0588 51.4768 33.9749 52.2482 34.4571C53.55 35.2767 55.2375 35.7106 57.3589 35.7106C60.7339 35.7106 63.3854 34.4088 65.2661 31.8053C67.1461 29.1535 68.0625 25.8752 68.0625 21.8731C68.0609 18.0166 67.1464 14.8821 65.2179 12.4713ZM59.5768 28.0928C59.148 28.7568 58.5533 29.2973 57.8515 29.661C57.1497 30.0246 56.3651 30.1987 55.5753 30.166C53.5503 30.166 52.1039 29.4428 51.1396 27.9963C50.1753 26.5981 49.6453 24.766 49.6453 22.5485C49.5983 20.9899 49.8434 19.4362 50.3679 17.9678C51.2836 15.7981 52.9714 14.6892 55.3822 14.6892C57.7929 14.6892 59.4322 15.7981 60.3479 18.0642C60.8313 19.525 61.0596 21.0581 61.0229 22.5963C61.0223 24.8626 60.5398 26.6948 59.5755 28.0928H59.5768ZM104.898 9.48206C103.849 9.02789 102.715 8.79798 101.572 8.80706C99.9657 8.78022 98.3773 9.14425 96.9432 9.86778C95.5674 10.657 94.4336 11.8074 93.6646 13.1946C93.1991 11.9945 92.4359 10.9326 91.4468 10.1088C90.2414 9.24099 88.6503 8.80706 86.7218 8.80706C84.6485 8.80706 82.9128 9.2892 81.6593 10.3017C80.8878 10.8803 80.1164 11.8446 79.2971 13.1463V9.43481H72.7393V35.0356H79.5857V19.6071C79.5857 18.2088 79.7786 17.1481 80.1161 16.4249C80.7911 15.1713 82.0447 14.5928 83.9732 14.5928C85.6125 14.5928 86.7214 15.1713 87.2997 16.4249C87.589 17.0999 87.7818 18.2088 87.7818 19.7514V35.0356H94.5318V19.7523C94.5131 18.7466 94.6933 17.7471 95.0622 16.8113C95.7851 15.2684 97.0387 14.497 98.8708 14.497C100.51 14.497 101.619 15.0756 102.198 16.2809C102.524 17.0422 102.688 17.8633 102.68 18.6916V35.0356H109.526L109.574 18.8845C109.574 17.197 109.526 15.9434 109.333 15.0759C109.142 13.8767 108.643 12.7473 107.887 11.7973C107.107 10.7799 106.076 9.98219 104.896 9.48206H104.898ZM138.552 27.8511L134.645 9.38563H127.847L124.136 27.8035L120.133 9.38563H112.95L120.133 35.0356H127.125L131.175 16.3285L135.225 35.0356H142.119L149.544 9.38563H142.551L138.552 27.8511ZM156.632 35.0356V27.9963H149.496V35.0356H156.632ZM177.316 8.75981H176.979C174.954 8.75981 173.314 9.29017 172.061 10.3509C171.289 10.9777 170.421 12.1348 169.361 13.8705V9.38563H162.947V35.0356H169.746V22.7892C169.746 20.716 169.988 19.1731 170.518 18.2088C171.434 16.4249 173.218 15.5571 175.966 15.5571C176.224 15.5532 176.482 15.5693 176.737 15.6053C177.124 15.6174 177.511 15.6496 177.894 15.7017V8.80706C177.7 8.83312 177.502 8.81701 177.314 8.75981H177.316ZM188.501 24.8634V9.38563H181.607V24.8627C181.607 27.8038 181.993 30.0213 182.716 31.5163C184.018 34.2163 186.621 35.6145 190.382 35.6145C191.56 35.6297 192.733 35.4505 193.853 35.0842C194.975 34.6323 196.005 33.9786 196.891 33.1556C197.242 32.8576 197.536 32.4982 197.759 32.0949L198.241 31.4199V35.0356H204.798V9.38563H197.951V23.3202C197.951 25.0077 197.759 26.3095 197.325 27.322C196.457 29.1541 194.866 30.0702 192.6 30.0702C190.816 30.0702 189.61 29.4434 188.984 28.1416C188.646 27.4178 188.5 26.3092 188.5 24.8627L188.501 24.8634Z" fill="#2F2F2F"/>
</svg>
