<svg width="99" height="100" viewBox="0 0 99 100" fill="none" xmlns="http://www.w3.org/2000/svg">
<path d="M19.2 20.1998L22.2001 0.299805H28.3V28.2998H24.1V8.1998L21.1 28.2998H16.9L13.7 8.49981V28.2998H9.80005V0.299805H15.9L19.2 20.1998Z" fill="black"/>
<path d="M35.0999 0.299805H30.7V28.2998H35.0999V0.299805Z" fill="black"/>
<path d="M46.7001 28.3C46.6001 28.1 46.6001 27.9 46.5001 27.8C46.4001 27.6 46.4001 27.4001 46.4001 27.2001C46.4001 27 46.3001 26.7 46.3001 26.3C46.3001 25.9 46.3001 25.5 46.3001 24.9V20.5C46.3001 19.2001 46.1001 18.3001 45.6001 17.7001C45.1001 17.2001 44.4001 16.9 43.4001 16.9H41.9001V28.3H37.5001V0.300049H44.1001C46.4001 0.300049 48.1001 0.800049 49.1001 1.90005C50.1001 3.00005 50.6001 4.60005 50.6001 6.70005V8.90005C50.6001 11.8 49.6001 13.7 47.7001 14.6C48.8001 15.1 49.6001 15.8 50.0001 16.8C50.4001 17.8 50.6001 19.1 50.6001 20.5V24.8C50.6001 25.5 50.6001 26.1 50.7001 26.6C50.8001 27.1 50.9001 27.6 51.1001 28.2001H46.7001V28.3ZM41.9001 4.30005V12.9H43.6001C44.4001 12.9 45.1001 12.7 45.5001 12.3C46.0001 11.9 46.2001 11.1 46.2001 10V7.20005C46.2001 6.20005 46.0001 5.50005 45.7001 5.00005C45.3001 4.50005 44.8001 4.30005 44.0001 4.30005H41.9001Z" fill="black"/>
<path d="M56.7001 8.00005V28.3H52.7001V0.300049H58.3001L62.8001 17V0.300049H66.7001V28.3H62.2001L56.7001 8.00005Z" fill="black"/>
<path d="M68.7001 7C68.7001 4.7 69.3001 3 70.4001 1.8C71.5001 0.599999 73.2001 0 75.4001 0C77.6001 0 79.2001 0.599999 80.4001 1.8C81.5001 3 82.1001 4.8 82.1001 7V21.6C82.1001 23.9 81.5001 25.6 80.4001 26.8C79.3001 28 77.6001 28.6 75.4001 28.6C73.2001 28.6 71.6001 28 70.4001 26.8C69.3001 25.6 68.7001 23.8 68.7001 21.6V7ZM73.1001 21.8C73.1001 22.8 73.3001 23.5 73.7001 23.9C74.1001 24.3 74.7001 24.5 75.4001 24.5C76.1001 24.5 76.6001 24.3 77.1001 23.9C77.5001 23.5 77.7001 22.8 77.7001 21.8V6.7C77.7001 5.7 77.5001 5 77.1001 4.6C76.7001 4.2 76.1001 4 75.4001 4C74.7001 4 74.2001 4.2 73.7001 4.6C73.3001 5 73.1001 5.7 73.1001 6.7V21.8Z" fill="black"/>
<path d="M90.7001 23.1L94.1001 0.300049H98.1001L93.8001 28.3H87.3001L82.9001 0.300049H87.4001L90.7001 23.1Z" fill="black"/>
<path d="M4.8001 42.5C4.8001 40.2 5.3001 38.5 6.4001 37.3C7.5001 36.1 9.1001 35.5 11.3001 35.5C13.5001 35.5 15.1001 36.1 16.2001 37.3C17.3001 38.5 17.8001 40.3 17.8001 42.5V43.6H13.6001V42.3C13.6001 41.3 13.4001 40.6 13.0001 40.2C12.6001 39.8 12.1001 39.6 11.4001 39.6C10.7001 39.6 10.2001 39.8 9.8001 40.2C9.4001 40.6 9.2001 41.3 9.2001 42.3C9.2001 43.3 9.4001 44.1 9.8001 44.8C10.2001 45.5 10.8001 46.2 11.4001 46.9C12.0001 47.6 12.7001 48.2 13.5001 48.9C14.2001 49.6 14.9001 50.3 15.6001 51C16.2001 51.8 16.8001 52.7 17.2001 53.6C17.6001 54.6 17.8001 55.7 17.8001 57.1C17.8001 59.4 17.2001 61.1 16.1001 62.3C15.0001 63.5 13.4001 64.1 11.2001 64.1C9.0001 64.1 7.4001 63.5 6.3001 62.3C5.2001 61.1 4.6001 59.3 4.6001 57.1V55.2H8.8001V57.4C8.8001 58.4 9.0001 59.1 9.4001 59.5C9.8001 59.9 10.4001 60.1 11.1001 60.1C11.8001 60.1 12.3001 59.9 12.8001 59.5C13.2001 59.1 13.4001 58.4 13.4001 57.4C13.4001 56.4 13.2001 55.6 12.8001 54.9C12.4001 54.2 11.8001 53.5 11.2001 52.8C10.6001 52.1 9.9001 51.5 9.1001 50.8C8.4001 50.1 7.7001 49.4 7.0001 48.7C6.4001 47.9 5.8001 47 5.4001 46.1C5.0001 45 4.8001 43.9 4.8001 42.5Z" fill="black"/>
<path d="M23.9001 47.6001H30.0001V51.6001H23.9001V59.8H31.5001V63.8H19.5001V35.8H31.5001V39.8H23.9001V47.6001Z" fill="black"/>
<path d="M42.7001 63.8C42.6001 63.6 42.6001 63.4 42.5001 63.3C42.4001 63.1 42.4001 62.9001 42.4001 62.7001C42.4001 62.5 42.3001 62.2 42.3001 61.8C42.3001 61.4 42.3001 61 42.3001 60.4V56C42.3001 54.7 42.1001 53.8001 41.6001 53.2001C41.1001 52.7001 40.4001 52.4 39.4001 52.4H37.9001V63.8H33.5001V35.8H40.1001C42.4001 35.8 44.1001 36.3 45.1001 37.4C46.1001 38.5 46.6001 40.1001 46.6001 42.2001V44.4C46.6001 47.3 45.6001 49.2001 43.7001 50.1001C44.8001 50.6001 45.6001 51.3 46.0001 52.3C46.4001 53.3 46.6001 54.6 46.6001 56V60.3C46.6001 61 46.6001 61.6001 46.7001 62.1001C46.8001 62.6001 46.9001 63.1 47.1001 63.7001H42.7001V63.8ZM37.9001 39.8V48.4H39.6001C40.4001 48.4 41.1001 48.2 41.5001 47.8C42.0001 47.4 42.2001 46.6 42.2001 45.5V42.7001C42.2001 41.7001 42.0001 41 41.7001 40.5C41.3001 40 40.8001 39.8 40.0001 39.8H37.9001Z" fill="black"/>
<path d="M55.4001 58.7001L58.7001 35.8H62.8001L58.5001 63.8H51.9001L47.6001 35.8H52.0001L55.4001 58.7001Z" fill="black"/>
<path d="M68.4001 35.8H64.0001V63.8H68.4001V35.8Z" fill="black"/>
<path d="M83.6001 53.4V57.1C83.6001 59.4 83.0001 61.1 81.9001 62.3C80.8001 63.5 79.2001 64.1 77.0001 64.1C74.8001 64.1 73.2001 63.5 72.1001 62.3C71.0001 61.1 70.4001 59.3 70.4001 57.1V42.5C70.4001 40.2 71.0001 38.5 72.1001 37.3C73.2001 36.1 74.8001 35.5 77.0001 35.5C79.2001 35.5 80.8001 36.1 81.9001 37.3C83.0001 38.5 83.6001 40.3 83.6001 42.5V45.3H79.4001V42.3C79.4001 41.3 79.2001 40.6 78.8001 40.2C78.4001 39.8 77.8001 39.6 77.1001 39.6C76.4001 39.6 75.9001 39.8 75.4001 40.2C75.0001 40.6 74.8001 41.3 74.8001 42.3V57.4C74.8001 58.4 75.0001 59.1 75.4001 59.5C75.8001 59.9 76.4001 60.1 77.1001 60.1C77.8001 60.1 78.3001 59.9 78.8001 59.5C79.2001 59.1 79.4001 58.4 79.4001 57.4V53.4H83.6001Z" fill="black"/>
<path d="M89.9001 47.6001H95.9001V51.6001H89.9001V59.8H97.5001V63.8H85.5001V35.8H97.5001V39.8H89.9001V47.6001Z" fill="black"/>
<path d="M66.5001 95.1001H62.3001V99.3001H66.5001V95.1001Z" fill="black"/>
<path d="M78.2001 99.3999C78.1001 99.1999 78.1001 98.9999 78.0001 98.8999C77.9001 98.6999 77.9001 98.4999 77.9001 98.2999C77.9001 98.0999 77.8001 97.7999 77.8001 97.3999C77.8001 96.9999 77.8001 96.5999 77.8001 95.9999V91.5999C77.8001 90.2999 77.6001 89.3999 77.1001 88.7999C76.6001 88.2999 75.9001 87.9999 74.9001 87.9999H73.4001V99.3999H69.0001V71.3999H75.6001C77.9001 71.3999 79.6001 71.8999 80.6001 72.9999C81.6001 74.0999 82.1001 75.6999 82.1001 77.7999V79.9999C82.1001 82.8999 81.1001 84.7999 79.2001 85.6999C80.3001 86.1999 81.1001 86.8999 81.5001 87.8999C81.9001 88.8999 82.1001 90.1999 82.1001 91.5999V95.8999C82.1001 96.5999 82.1001 97.1999 82.2001 97.6999C82.3001 98.1999 82.4001 98.6999 82.6001 99.2999H78.2001V99.3999ZM73.4001 75.3999V83.9999H75.1001C75.9001 83.9999 76.6001 83.7999 77.0001 83.3999C77.5001 82.9999 77.7001 82.1999 77.7001 81.0999V78.2999C77.7001 77.2999 77.5001 76.5999 77.2001 76.0999C76.8001 75.5999 76.3001 75.3999 75.5001 75.3999H73.4001Z" fill="black"/>
<path d="M88.5001 71.3999V92.9999C88.5001 93.9999 88.7001 94.6999 89.1001 95.0999C89.5001 95.4999 90.1001 95.6999 90.8001 95.6999C91.5001 95.6999 92.0001 95.4999 92.5001 95.0999C92.9001 94.6999 93.1001 93.9999 93.1001 92.9999V71.3999H97.3001V92.6999C97.3001 94.9999 96.7001 96.6999 95.6001 97.8999C94.5001 99.0999 92.9001 99.6999 90.7001 99.6999C88.5001 99.6999 86.9001 99.0999 85.8001 97.8999C84.7001 96.6999 84.1001 94.8999 84.1001 92.6999V71.3999H88.5001Z" fill="black"/>
<path d="M7.5 18.1C7.1 17.1 6.5 16.2 5.9 15.5C5.3 14.7 4.6 14 3.8 13.4C3.1 12.7 2.4 12.1 1.7 11.4C1.1 10.7 0.5 10.1 0.1 9.3C3.7998e-07 9.2 0 9.1 0 9V15.8C0.5 16.3 1 16.7 1.5 17.2C2.1 17.9 2.7 18.5 3.1 19.3C3.5 20 3.7 20.9 3.7 21.8C3.7 22.8 3.5 23.5 3.1 23.9C2.7 24.3 2.1 24.5 1.4 24.5C0.800001 24.5 0.4 24.4 0 24.1V28.4C0.5 28.5 1 28.5 1.5 28.5C3.7 28.5 5.3 27.9 6.4 26.7C7.5 25.5 8.1 23.7 8.1 21.5C8.1 20.2 7.9 19.1 7.5 18.1Z" fill="black"/>
<path d="M0 4.7L0.1 4.6C0.5 4.2 1 4 1.7 4C2.4 4 2.9 4.2 3.3 4.6C3.7 5 3.9 5.7 3.9 6.7V8.1H8.1V7C8.1 4.7 7.6 3 6.5 1.8C5.4 0.599999 3.8 0 1.6 0C1 0 0.5 -1.52737e-06 0 0.0999985V4.7Z" fill="black"/>
</svg>
