<svg width="33" height="33" viewBox="0 0 33 33" fill="none" xmlns="http://www.w3.org/2000/svg">
<path d="M10.4795 28.2044C12.4238 29.246 14.6457 29.8348 17 29.8348C24.6433 29.8348 30.8398 23.6382 30.8398 15.9949C30.8398 8.35633 24.6429 2.16016 17 2.16016C9.35673 2.16016 3.16016 8.35673 3.16016 16C3.16016 18.5404 3.84751 20.929 5.04739 22.9783L3.64813 27.717L2.88281 30.3088L5.48717 29.5874L10.4795 28.2044Z" fill="#25D366" stroke="white" stroke-width="3"/>
<path d="M23.7794 19.3871C23.7641 19.2246 23.6676 19.0825 23.5204 19.0164C22.5251 18.5594 21.5247 18.1024 20.5294 17.6453C20.4176 17.5946 20.2805 17.62 20.1993 17.7164L18.8485 19.2399C18.7419 19.3618 18.5743 19.4024 18.427 19.3414C17.7262 19.052 16.7817 18.5645 15.827 17.7418C14.6844 16.7618 14.0141 15.7106 13.6383 15.025C13.8262 14.8981 14.3391 14.5172 14.5676 13.8114C14.5676 13.8063 14.5727 13.8012 14.5727 13.8012C14.7149 13.3645 14.6844 12.8922 14.527 12.4606C14.2579 11.7446 13.7196 10.3582 13.5114 10.145C13.4758 10.1094 13.4352 10.0739 13.4352 10.0739C13.2829 9.93676 13.0848 9.86058 12.8766 9.85043C12.8055 9.84535 12.7294 9.84535 12.6481 9.84535C12.4145 9.84027 12.2063 9.84027 12.054 9.86058C11.6223 9.92152 11.3075 10.211 11.1094 10.4547C10.8708 10.7442 10.5864 11.1758 10.3985 11.7446C10.3833 11.7954 10.368 11.8411 10.3528 11.8918C10.1446 12.6129 10.1852 13.3848 10.434 14.0957C10.6676 14.761 11.0079 15.5532 11.5208 16.3911C12.3891 17.818 13.3336 18.7016 13.9735 19.2856C14.6946 19.9508 15.5883 20.7684 17.0051 21.4489C18.3153 22.0786 19.5036 22.3121 20.3008 22.4086C20.6258 22.4391 21.2251 22.4442 21.9106 22.1852C22.2254 22.0633 22.4895 21.9161 22.7028 21.7586C23.2665 21.3575 23.6626 20.7532 23.7641 20.0727C23.7641 20.0676 23.7641 20.0625 23.7641 20.0575C23.7997 19.7985 23.7946 19.575 23.7794 19.3871Z" fill="white"/>
</svg>
