<svg width="48" height="48" viewBox="0 0 48 48" fill="none" xmlns="http://www.w3.org/2000/svg">
<path d="M23.4998 2C11.0735 2 1 12.0735 1 24.4998C1 36.9261 11.0735 47 23.4998 47C35.9261 47 46 36.9261 46 24.4998C45.986 12.0792 35.9208 2.01401 23.4998 2V2ZM23.4998 6.50012C30.9131 6.47499 37.5741 11.0241 40.2487 17.9377C34.9856 15.5688 29.2713 14.3695 23.4998 14.4218C17.7287 14.3695 12.0144 15.5688 6.75133 17.9377C9.42594 11.0241 16.0869 6.47499 23.4998 6.50012ZM19.7944 42.1143C11.9613 40.4416 6.16754 33.8066 5.56604 25.8194C12.2851 25.8194 19.7944 34.7657 19.7944 42.1143ZM23.4998 27.8748C21.636 27.8748 20.1248 26.364 20.1248 24.4998C20.1248 22.636 21.636 21.1248 23.4998 21.1248C25.364 21.1248 26.8748 22.636 26.8748 24.4998C26.8748 26.364 25.364 27.8748 23.4998 27.8748ZM27.2056 42.1143C27.2056 34.7657 34.7149 25.8194 41.4344 25.8194C40.8325 33.8066 35.0387 40.4416 27.2056 42.1143Z" fill="#1F72E4"/>
</svg>
