<svg width="18" height="18" viewBox="0 0 18 18" fill="none" xmlns="http://www.w3.org/2000/svg">
<g clip-path="url(#clip0_1353_6160)">
<path fill-rule="evenodd" clip-rule="evenodd" d="M17.82 5.3752C17.82 5.3752 17.6439 4.12603 17.1045 3.57605C16.4199 2.8538 15.6527 2.85042 15.3011 2.80852C12.7822 2.625 9.00394 2.625 9.00394 2.625H8.99606C8.99606 2.625 5.21775 2.625 2.69887 2.80852C2.34675 2.85042 1.58006 2.8538 0.894937 3.57605C0.3555 4.12617 0.18 5.3752 0.18 5.3752C0.18 5.3752 0 6.84248 0 8.30906V9.68451C0 11.1517 0.18 12.6184 0.18 12.6184C0.18 12.6184 0.3555 13.8675 0.894937 14.4175C1.58006 15.1398 2.4795 15.1171 2.88 15.1925C4.32 15.3319 9 15.3749 9 15.3749C9 15.3749 12.7822 15.3693 15.3011 15.1858C15.6527 15.1433 16.4199 15.1399 17.1045 14.4177C17.6439 13.8675 17.82 12.6185 17.82 12.6185C17.82 12.6185 18 11.1518 18 9.68451V8.30906C18 6.84248 17.82 5.3752 17.82 5.3752ZM7.1415 11.3512L7.14094 6.25791L12.0043 8.81334L7.1415 11.3512Z" fill="#CE1312"/>
</g>
<defs>
<clipPath id="clip0_1353_6160">
<rect width="18" height="18" fill="white"/>
</clipPath>
</defs>
</svg>
