<svg width="102" height="32" viewBox="0 0 102 32" fill="none" xmlns="http://www.w3.org/2000/svg">
<g clip-path="url(#clip0_161_1118)">
<path d="M8.8976 28.3607V30.6295H2.08973C1.80607 30.6295 1.52241 30.6295 1.23875 30.346C0.955085 30.0624 0.955078 29.7788 0.955078 29.4952V20.7033H8.8976V22.9722H2.08973L3.79169 23.823V24.6739H8.33029V26.9427H3.79169V28.9279H8.8976V28.3607ZM17.6911 20.1361H19.6768V30.346H17.4075L12.8689 24.9575V29.4952C12.8689 29.7788 12.8689 29.7788 12.8689 30.0624L12.5852 30.346C12.5852 30.346 12.3015 30.346 12.0179 30.346H10.0322V20.987C10.0322 20.7033 10.0322 20.4197 10.3159 20.4197C10.5996 20.1361 10.5996 20.1361 10.8832 20.1361H12.3015L18.8257 28.0772L16.8402 24.6739V20.987C16.8402 20.7033 16.8402 20.7033 17.1238 20.4197C17.1238 20.4197 17.4075 20.1361 17.6911 20.1361ZM28.1866 26.0918V25.8082C28.1866 25.8082 28.1866 25.5246 28.4702 25.5246C28.4702 25.5246 28.7539 25.5246 28.7539 25.241H29.0375H30.7396V29.4952C30.1721 29.7788 29.6048 30.346 28.7539 30.346C27.9029 30.6295 27.3356 30.6295 26.4847 30.6295C24.7826 30.6295 23.648 30.0624 22.5133 29.2115C21.3787 28.3607 20.8114 26.9427 20.8114 25.5246C20.8114 24.1066 21.3787 22.6885 22.5133 21.8378C23.648 20.9869 25.0663 20.4197 26.4847 20.4197C28.4702 20.4197 29.8886 20.987 31.0232 22.4049L29.8886 23.5394C29.6048 23.823 29.6048 23.823 29.3212 23.823C29.0375 23.823 28.7539 23.823 28.7539 23.5394C28.1866 23.2558 27.6193 22.9722 26.7683 22.9722C26.2009 22.9722 25.6336 22.9722 25.3499 23.2558C24.7826 23.5394 24.499 23.823 24.2153 24.3903C23.9317 24.9575 23.9317 25.241 23.9317 25.8082C23.9317 26.6591 24.2153 27.2263 24.7826 27.7936C25.3499 28.3607 26.2009 28.6443 26.7683 28.6443C27.6193 28.6443 28.7539 28.3607 29.6048 27.5098L28.1866 27.2263V26.0918ZM32.1578 20.1361H34.9944V30.346H32.1578V20.1361ZM43.788 20.1361H45.7735V30.346H43.5043L38.9657 24.9575V29.4952C38.9657 29.7788 38.9657 29.7788 38.9657 30.0624L38.682 30.346C38.682 30.346 38.3984 30.346 38.1147 30.346H36.129V20.987C36.129 20.7033 36.1292 20.4197 36.4128 20.4197C36.6965 20.4197 36.6965 20.1361 36.9801 20.1361H38.3984L44.9226 28.0772L42.9369 24.6739V20.987C42.9369 20.7033 42.9369 20.7033 43.2207 20.4197C43.2207 20.4197 43.5043 20.1361 43.788 20.1361ZM55.1344 28.3607V30.6295H48.3265C48.0429 30.6295 47.7592 30.6295 47.4756 30.346C47.1919 30.0624 47.1919 29.7788 47.1919 29.4952V20.7033H55.1344V22.9722H48.3265L50.0284 23.823V24.6739H54.5671V26.9427H49.7449V28.9279H55.1344V28.3607ZM64.2116 28.3607V30.6295H57.4037C57.1201 30.6295 56.8364 30.6295 56.5528 30.346C56.2691 30.0624 56.2691 29.7788 56.2691 29.4952V20.7033H64.2116V22.9722H57.4037L59.1056 23.823V24.6739H63.6443V26.9427H59.1056V28.9279H64.2116V28.3607ZM71.8704 30.346L70.1685 27.5098H68.4665V29.2115C68.4665 29.4952 68.4665 29.7788 68.1828 29.7788C67.8992 30.0624 67.8992 30.0624 67.6155 30.0624H65.6298V19.8525H70.1685C71.5867 19.8525 72.7215 20.1361 73.5724 20.987C74.4234 21.5542 74.707 22.6887 74.707 23.823C74.707 25.241 74.1397 26.3755 72.7215 26.9427L74.9907 30.0624H71.8704V30.346ZM71.5867 24.1066C71.5867 23.5394 71.3031 23.2558 71.0194 22.9722C70.7358 22.6887 70.1685 22.6885 69.6012 22.6885H66.1973L67.8992 23.5394V25.8082H69.6012C70.1685 25.8082 70.7358 25.8082 71.0194 25.5246C71.5868 24.9575 71.5867 24.3901 71.5867 24.1066ZM75.8416 20.1361H78.6783V30.346H75.8416V20.1361ZM87.7555 20.1361H89.7411V30.346H87.4718L82.9333 24.9575V29.4952C82.9333 29.7788 82.9333 29.7788 82.9333 30.0624L82.6495 30.346C82.6495 30.346 82.366 30.346 82.0822 30.346H80.0965V20.987C80.0965 20.7033 80.0965 20.4197 80.3803 20.4197C80.6639 20.1361 80.6639 20.1361 80.9476 20.1361H82.366L88.8902 28.0772L86.9045 24.6739V20.987C86.9045 20.7033 86.9045 20.7033 87.1882 20.4197C87.1882 20.4197 87.4718 20.1361 87.7555 20.1361ZM98.2509 26.0918V25.8082C98.2509 25.8082 98.2509 25.5246 98.5346 25.5246C98.5346 25.5246 98.8182 25.5246 98.8182 25.241H99.102H100.804V29.4952C100.237 29.7788 99.6693 30.346 98.8182 30.346C97.9673 30.6295 97.4 30.6295 96.549 30.6295C94.847 30.6295 93.7124 30.0624 92.5778 29.2115C91.443 28.0772 90.8757 26.9427 90.8757 25.5246C90.8757 24.1066 91.443 22.6885 92.5778 21.8378C93.7124 20.9869 95.1306 20.4197 96.549 20.4197C98.5346 20.4197 99.9529 20.987 101.087 22.4049L99.9529 23.5394C99.6693 23.823 99.6693 23.823 99.3855 23.823C99.102 23.823 98.8182 23.823 98.8182 23.5394C98.2509 23.2558 97.6836 22.9722 96.8327 22.9722C96.2652 22.9722 95.6979 22.9722 95.4143 23.2558C94.847 23.5394 94.5633 23.823 94.2797 24.3903C93.996 24.9575 93.996 25.241 93.996 25.8082C93.996 26.6591 94.2797 27.2263 94.847 27.7936C95.4143 28.3607 96.2652 28.6443 96.8327 28.6443C97.6836 28.6443 98.8182 28.3607 99.6693 27.5098L98.2509 27.2263V26.0918Z" fill="black"/>
<path d="M9.74859 15.0311L7.19563 11.0607H4.92632V13.6131C4.92632 13.8967 4.92634 14.1803 4.64268 14.4639C4.35901 14.7476 4.07535 14.7475 3.7917 14.7475H0.955078V0.283624H7.19563C9.18126 0.283624 10.5996 0.850836 12.0179 1.70165C13.1525 2.55247 13.7198 3.97048 13.7198 5.67212C13.7198 7.94098 12.8689 9.35903 10.8832 10.2098L14.0035 14.7475H9.74859V15.0311ZM9.46493 5.67212C9.46493 5.10491 9.18126 4.53772 8.8976 3.97051C8.33027 3.6869 7.76296 3.40326 6.91197 3.40326H2.08973L4.64268 4.53772V7.65737H6.91197C7.76296 7.65737 8.33027 7.37376 8.8976 7.09016C9.46491 7.09016 9.46493 6.52294 9.46493 5.67212ZM27.3356 11.9115V15.0311H17.6911C17.1238 15.0311 16.8402 14.7476 16.2727 14.4639C15.7055 14.1803 15.7055 13.6131 15.7055 13.0459V0.283624H27.052V3.40326H17.1238L19.6768 4.53772V5.67212H26.2009V8.79182H19.6768V11.3443H27.3356V11.9115ZM42.3696 0.283624H45.2062L38.9657 14.7475H34.9944L28.7539 0.283624H32.1578C32.4416 0.283624 32.7251 0.283598 33.0089 0.567205C33.2924 0.85081 33.5762 0.850845 33.5762 1.13445L36.4128 8.22461L35.8454 12.4787L40.6677 1.41803C40.6677 1.13443 40.9513 0.85081 41.235 0.567205C41.8023 0.567205 42.0861 0.283624 42.3696 0.283624ZM58.5383 11.9115V15.0311H48.8938C48.3265 15.0311 48.0429 14.7476 47.4756 14.4639C47.1919 14.1803 46.9083 13.6131 46.9083 13.0459V0.283624H58.2547V3.40326H48.3265L50.8795 4.53772V5.67212H57.4037V8.79182H50.8795V11.3443H58.5383V11.9115ZM69.0339 15.0311L66.4809 11.0607H64.2116V13.6131C64.2116 13.8967 64.2116 14.1803 63.9279 14.4639C63.6443 14.7476 63.3606 14.7475 63.077 14.7475H60.2403V0.283624H66.7646C68.7501 0.283624 70.1685 0.850836 71.5867 1.70165C72.7215 2.55247 73.2888 3.97048 73.2888 5.67212C73.2888 7.94098 72.4377 9.35903 70.4521 10.2098L73.5724 14.7475H69.0339V15.0311ZM69.0339 5.67212C69.0339 5.10491 68.7501 4.53772 68.4665 3.97051C67.8992 3.6869 67.3319 3.40326 66.4809 3.40326H61.6586L64.2116 4.53772V7.65737H66.4809C67.3319 7.65737 67.8992 7.37376 68.4665 7.09016C68.7501 7.09016 69.0339 6.52294 69.0339 5.67212ZM76.1254 14.1803C75.8416 14.1803 75.5581 13.8967 75.2743 13.3295C75.2743 13.0459 75.2743 12.7623 75.2743 12.1951L76.1254 10.2098C76.4091 10.4935 76.9764 10.7771 77.5437 11.0607C78.111 11.3443 78.6784 11.3443 79.2457 11.6279C79.813 11.6279 80.3803 11.9115 80.9476 11.9115C82.6496 11.9115 83.2169 11.6279 83.2169 10.7771C83.2169 10.4934 83.2169 10.2098 82.9333 10.2098C82.6496 9.92625 82.366 9.92625 82.0822 9.64264C81.7987 9.64264 81.2312 9.35903 80.6639 9.35903C80.0966 9.35903 79.5293 9.0754 79.2457 9.0754C78.6784 9.0754 78.111 8.7918 77.8273 8.50819C77.26 8.22458 76.9764 7.94097 76.4091 7.65737C76.1254 7.37376 75.8416 7.09016 75.5581 6.52296C75.2743 5.95575 75.2743 5.38851 75.2743 4.8213C75.2743 3.40326 75.8416 2.26885 76.9764 1.41803C78.111 0.567212 79.813 0 81.7987 0C83.7842 0 85.4861 0.283633 86.9045 1.13445L86.0534 3.1197C86.0534 3.40329 85.7699 3.68689 85.4861 3.68689C85.2025 3.68689 84.9188 3.68689 84.6352 3.68689C83.5006 3.40329 82.6496 3.1197 81.7987 3.1197C80.0966 3.1197 79.5293 3.6869 79.5293 4.53772C79.5293 4.82133 79.813 5.10495 80.0966 5.38854C80.3803 5.67215 80.9476 5.67215 81.5149 5.95575C82.0822 5.95575 82.9333 6.23935 83.5006 6.52296C84.3515 6.80657 84.9188 7.09018 85.4861 7.37379C86.0534 7.65739 86.6208 7.941 86.9045 8.79182C87.1882 9.35903 87.4718 10.2099 87.4718 11.0607C87.4718 12.4787 86.9045 13.6131 85.7699 14.4639C84.6352 15.3147 82.9333 15.8819 80.9476 15.8819C79.2457 15.3147 77.5437 15.0311 76.1254 14.1803ZM100.804 11.9115V15.0311H91.1594C90.5921 15.0311 90.3084 14.7476 89.7411 14.4639C89.4575 14.1803 89.1738 13.6131 89.1738 13.0459V0.283624H100.52V3.40326H90.5921L93.1451 4.53772V5.67212H99.6693V8.79182H93.1451V11.3443H100.804V11.9115Z" fill="black"/>
</g>
<defs>
<clipPath id="clip0_161_1118">
<rect width="100.571" height="32" fill="white" transform="translate(0.955078)"/>
</clipPath>
</defs>
</svg>
