<svg width="112" height="32" viewBox="0 0 112 32" fill="none" xmlns="http://www.w3.org/2000/svg">
<g clip-path="url(#clip0_161_1149)">
<path d="M36.7522 11.0606C37.0357 13.0458 37.0357 15.0311 37.3195 17.3C37.3195 17.5835 37.3195 17.8671 37.8868 17.8671C39.0214 17.8671 39.8725 17.8671 41.0071 17.5835C43.2764 17.3 44.6946 16.1655 45.8293 14.1803C46.3967 13.0459 46.3967 11.6278 46.3967 10.2098C46.1129 7.65734 44.9783 5.9557 42.709 5.10488C41.2907 4.25406 39.5887 4.53768 37.8868 4.53768C37.6031 4.53768 37.3195 4.82127 37.3195 5.10488C37.0357 6.80652 37.0357 9.07535 36.7522 11.0606ZM37.0357 21.8376C35.9011 21.8376 34.7665 21.8376 33.6319 21.8376C32.7808 21.8376 32.7808 21.8376 32.4972 20.9868C32.2135 19.5688 31.9299 18.1507 31.9299 16.7326C31.6462 14.1803 31.6462 11.3442 31.6462 8.79177C31.6462 5.95572 31.9299 3.40326 32.7808 0.567203C32.7808 -8.62848e-06 33.0645 0 33.6319 0C35.9011 0 38.1704 0 40.4396 0C43.5599 0.283605 46.6802 1.13441 48.9495 3.40326C50.3679 4.82129 51.2189 6.80652 51.5025 9.07537C51.7862 11.9114 51.5025 14.7475 49.8005 17.0164C48.3822 19.0016 46.3967 20.4195 43.8437 20.9868C42.4253 21.2704 41.0071 21.554 39.305 21.554C38.4541 21.8376 37.8868 21.8376 37.0357 21.8376Z" fill="black"/>
<path d="M99.44 5.67206V11.3442C100.858 11.3442 102.277 11.3442 103.695 11.3442C105.113 11.0606 105.964 9.92614 105.964 8.50811C105.964 7.09008 105.113 5.95565 103.695 5.95565C102.277 5.67206 100.858 5.67206 99.44 5.67206ZM94.0505 1.41797C95.7524 1.41797 97.4543 1.41797 99.1563 1.41797C100.858 1.41797 102.56 1.41797 104.262 1.41797C106.248 1.70157 107.95 2.26877 109.085 3.68681C112.488 7.37368 110.786 13.3294 105.964 14.7474C104.83 15.031 103.695 15.031 102.56 15.3147C101.426 15.3147 100.291 15.3147 99.1563 15.3147V20.4196H93.7667V1.41797H94.0505Z" fill="black"/>
<path d="M84.4069 13.0459C83.5558 11.0607 82.7049 9.07542 82.1376 7.09017H81.8539C81.0028 9.07542 80.1519 11.0607 79.5846 13.0459H84.4069ZM76.4643 20.7033H71.0748C71.0748 20.4197 71.0748 20.4197 71.3585 20.1359C73.9113 14.1803 76.4643 8.22459 79.3009 2.26887C79.5846 1.98526 79.5846 1.70166 80.1519 1.70166C81.5703 1.70166 82.9885 1.70166 84.4069 1.70166C84.6904 1.70166 84.9742 1.70164 85.2578 2.26887C87.8108 8.22459 90.6473 14.4639 93.2003 20.4197V20.7033H92.0657C90.9311 20.7033 89.5127 20.7033 88.3781 20.7033C88.0945 20.7033 87.8108 20.7033 87.5272 20.1359C87.2434 19.2852 86.6761 18.4345 86.3925 17.5836C86.1088 17.0164 86.1088 17.0164 85.5415 17.0164C83.2722 17.0164 81.003 17.0164 78.7336 17.0164C78.45 17.0164 78.1663 17.3 77.8827 17.5836C77.3154 18.4345 76.748 19.5688 76.4643 20.7033Z" fill="black"/>
<path d="M69.6575 20.4197H52.9215C52.9215 19.2852 52.9215 18.4343 52.9215 17.3C52.9215 17.0164 53.2052 16.7328 53.2052 16.7328C56.0418 13.3295 58.8783 9.92621 61.4313 6.80654C61.7151 6.52295 61.9986 6.23935 62.2824 5.95574H52.9215V1.70166H69.0902C69.0902 2.83608 69.0902 3.68689 69.0902 4.82132C69.0902 5.10492 68.8066 5.38852 68.8066 5.38852C65.97 8.79179 63.1333 12.1951 60.2967 15.5983C60.013 15.8819 60.0131 16.1655 59.7294 16.4492H69.6575V20.4197Z" fill="black"/>
<path d="M1.57776 20.4197V1.70166H6.68366V16.4492H14.3426V20.4197H1.57776Z" fill="black"/>
<path d="M16.8962 20.4197V16.4492C17.1799 16.4492 17.4635 16.4492 17.7472 16.4492C21.4348 16.4492 24.8387 16.4492 28.5263 16.4492C29.661 16.4492 29.661 16.4492 29.661 17.5835C29.661 18.4344 29.9445 19.5688 29.9445 20.4197H16.8962Z" fill="black"/>
<path d="M29.9445 1.70166C29.661 3.11969 29.661 4.25409 29.3772 5.3885H16.8962V1.70166H29.9445Z" fill="black"/>
<path d="M29.0936 9.0752H16.8962V13.0457H29.0936V9.0752Z" fill="black"/>
<path d="M2.14487 28.0768C2.14487 28.3604 1.86121 28.644 1.86121 28.9276H3.84684V26.0916H2.42854V26.6588C2.42854 27.5095 2.14487 27.7931 2.14487 28.0768ZM5.54882 28.9276V30.6292H4.69784V29.7785H1.57756V30.6292H0.726562V28.9276H1.01022C1.29388 28.9276 1.57756 28.644 1.57756 28.3604C1.57756 28.0768 1.86121 27.5095 1.86121 26.6588V25.2407H5.26515V28.9276H5.54882Z" fill="black"/>
<path d="M8.66942 27.5095C8.95307 27.5095 8.95307 27.2259 8.95307 26.9424C8.95307 26.6588 8.95307 26.3752 8.66942 26.3752C8.38574 26.3752 8.38573 26.0916 8.10207 26.0916H7.2511V27.5095H8.10207C8.38573 27.7933 8.66942 27.7933 8.66942 27.5095ZM9.23673 25.5243C9.52039 25.5243 9.80406 25.8079 9.80406 26.0916C10.0877 26.3752 10.0877 26.6588 10.0877 26.9424C10.0877 27.2259 10.0877 27.5097 9.80406 27.7933C9.5204 28.0768 9.52039 28.3604 9.23673 28.3604C8.95306 28.3604 8.6694 28.644 8.10207 28.644H7.2511V29.7785H6.11644V25.2407H8.10207C8.38573 25.2407 8.95306 25.5243 9.23673 25.5243Z" fill="black"/>
<path d="M14.6252 25.2406L12.6396 28.6439C12.356 28.9275 12.356 29.2111 12.0723 29.4946C11.7886 29.7782 11.505 29.7784 11.2213 29.7784C10.9377 29.7784 10.654 29.7782 10.3703 29.4946L10.654 28.6439C10.9377 28.6439 10.9377 28.6439 11.2213 28.6439H11.505L11.7886 28.3603L10.0867 24.957H11.2213L12.3559 27.2258L13.4906 24.957H14.6252V25.2406Z" fill="black"/>
<path d="M18.3136 27.7933C18.5972 28.0768 18.5972 28.0768 18.5972 28.3604C18.5972 28.644 18.5972 28.9276 18.3136 28.9276C18.0299 29.2112 18.0299 29.2112 17.4626 29.4947C17.1788 29.4947 16.8953 29.7785 16.6115 29.7785C16.3279 29.7785 16.0442 29.7785 15.7606 29.7785C15.4769 29.7785 15.1933 29.4947 14.9096 29.4947L15.1933 28.644C15.4769 28.644 15.4769 28.9276 15.7606 28.9276C16.0442 28.9276 16.3279 28.9276 16.3279 28.9276C16.6115 28.9276 16.8953 28.9276 17.1788 28.644C17.4626 28.644 17.4626 28.3604 17.4626 28.0768C17.4626 27.7931 17.4626 27.7933 17.1788 27.7933C17.1788 27.7933 16.8953 27.7933 16.6115 27.7933H15.4769V26.9424H16.6115C16.8953 26.9424 16.8953 26.9424 17.1788 26.9424L17.4626 26.6588C17.4626 26.3752 17.4626 26.3752 17.1788 26.3752C16.8953 26.3752 16.8953 26.0916 16.6115 26.0916C16.3279 26.0916 16.3279 26.0916 16.0442 26.0916C15.7606 26.0916 15.7606 26.0916 15.4769 26.3752L15.1933 25.5243C15.7606 25.2407 16.0442 25.2407 16.6115 25.2407C16.8953 25.2407 17.1788 25.2407 17.4626 25.5243C17.7461 25.5243 18.0299 25.8079 18.0299 26.0916C18.0299 26.3752 18.3136 26.3752 18.3136 26.6588C18.3136 26.9424 18.3135 26.9424 18.0299 27.2259C18.0299 27.5095 17.7461 27.5095 17.4626 27.5095C18.0299 27.5095 18.0299 27.7933 18.3136 27.7933Z" fill="black"/>
<path d="M22.0006 28.9276C22.2844 28.9276 22.2844 28.644 22.2844 28.3604C22.2844 27.7933 22.0006 27.7933 21.4333 27.7933H20.5824V29.2112H21.4333C21.4333 29.2112 21.717 28.9276 22.0006 28.9276ZM22.5679 27.2259C22.8517 27.5095 23.1352 27.7933 23.1352 28.3604C23.1352 28.9276 22.8517 29.2112 22.5679 29.4947C22.2844 29.7785 21.717 29.7785 21.1497 29.7785H19.164V25.2407H20.2987V26.6588H21.4333C22.0006 26.9424 22.2844 26.9424 22.5679 27.2259Z" fill="black"/>
<path d="M24.5541 26.3752C24.2705 26.3752 24.2705 26.6588 24.2705 26.9424C24.2705 27.2259 24.2705 27.5095 24.5541 27.5095C24.8378 27.5095 24.8378 27.7933 25.1214 27.7933H25.9724V26.0916H25.1214C24.8378 26.0916 24.8378 26.3752 24.5541 26.3752ZM27.1071 25.2407V29.7785H25.9724V28.644H25.1214L24.2705 29.7785H23.1359L23.9868 28.3604C23.7032 28.3604 23.4194 28.0768 23.4194 27.7933C23.1359 27.5097 23.1359 27.2259 23.1359 26.9424C23.1359 26.6588 23.1359 26.3752 23.4194 26.0916C23.7032 25.8079 23.7032 25.5243 23.9868 25.5243C24.2705 25.5243 24.5541 25.2407 25.1214 25.2407H27.1071Z" fill="black"/>
<path d="M30.7942 29.4949C30.5106 29.2112 30.2269 28.9276 29.9433 28.644C29.6596 28.3604 29.6596 27.7933 29.6596 27.5095C29.6596 26.9424 29.6596 26.6588 29.9433 26.3752C30.2269 26.0916 30.5106 25.808 30.7942 25.5243C31.078 25.2407 31.6453 25.2407 31.9288 25.2407C32.2126 25.2407 32.7799 25.2407 33.0635 25.5243C33.3472 25.5243 33.6308 25.8079 33.9145 26.0916L33.3472 26.6588C33.0635 26.3752 32.7799 26.0916 32.2126 26.0916C31.9288 26.0916 31.6453 26.0916 31.3615 26.3752C31.078 26.3752 31.078 26.6588 30.7942 26.9424C30.7942 27.2259 30.5106 27.5097 30.5106 27.7933C30.5106 28.0768 30.5106 28.3604 30.7942 28.644C30.7942 28.9276 31.078 28.9276 31.3615 29.2113C31.6453 29.2113 31.9288 29.4949 32.2126 29.4949C32.7799 29.4949 33.0635 29.2112 33.3472 28.9276L33.9145 29.4949C33.6308 29.7785 33.3472 30.0621 33.0635 30.0621C32.7799 30.0621 32.4962 30.3456 31.9288 30.3456C31.6453 29.7785 31.3615 29.7785 30.7942 29.4949Z" fill="black"/>
<path d="M37.6018 28.3603C37.6018 28.0766 37.3183 27.793 36.751 27.793H35.6163V28.9275H36.751C37.3183 29.2111 37.6018 28.9275 37.6018 28.3603ZM35.6163 27.2258H36.4672C36.7509 27.2258 36.751 27.2258 37.0345 27.2258C37.3183 27.2258 37.3183 26.9422 37.3183 26.9422C37.3183 26.6587 37.3183 26.6587 37.0345 26.6587C37.0345 26.6587 36.7509 26.6587 36.4672 26.6587H35.6163V27.2258ZM38.4529 27.793C38.7365 28.0767 38.7365 28.0766 38.7365 28.3603C38.7365 28.6439 38.4529 28.9275 38.1692 29.2111C37.8856 29.4946 37.3183 29.4946 37.0345 29.4946H34.7653V24.957H36.751C37.3183 24.957 37.6018 24.957 37.8856 25.2406C38.1692 25.5242 38.4529 25.8078 38.4529 26.0914C38.4529 26.3749 38.4529 26.3749 38.1692 26.6587C38.1692 26.9422 37.8856 26.9422 37.6018 26.9422C37.8856 27.5094 38.1692 27.793 38.4529 27.793Z" fill="black"/>
<path d="M42.708 28.9276V29.7785H39.3039V25.2407H42.708V26.0916H40.4386V27.2259H42.4242V28.0768H40.4386V28.9276H42.708Z" fill="black"/>
<path d="M46.9632 26.0916H45.545V29.7785H44.694V26.0916H43.2757V25.2407H46.9632V26.0916Z" fill="black"/>
<path d="M50.0834 28.0768L49.5161 26.3752L48.9487 28.0768H50.0834ZM50.3671 28.9276H48.3814L48.0979 29.7785H46.9632L48.9487 25.2407H50.0834L52.0691 29.7785H50.9344L50.3671 28.9276Z" fill="black"/>
</g>
<defs>
<clipPath id="clip0_161_1149">
<rect width="111.238" height="32" fill="white" transform="translate(0.726562)"/>
</clipPath>
</defs>
</svg>
