<svg width="151" height="35" viewBox="0 0 151 35" fill="none" xmlns="http://www.w3.org/2000/svg">
<g clip-path="url(#clip0_161_1169)">
<path d="M61.8687 17.5597C61.8687 18.9759 63.0017 20.1088 64.7014 20.1088H70.9334L64.9846 24.0738H69.2337L75.1825 20.1088V18.6927H66.6843C65.8345 18.6927 65.2679 18.1263 65.2679 17.2765C65.2679 16.4269 65.8345 15.8604 66.6843 15.8604H75.1825V14.4443H64.7014C63.2849 14.7276 61.8687 16.1438 61.8687 17.5597Z" fill="black"/>
<path d="M82.8317 14.7275H78.5825V16.1437H82.8317V24.0738H86.5141V16.1437H90.7633V14.7275H86.5141H82.8317Z" fill="black"/>
<path d="M22.7775 16.7101V22.0913C22.7775 23.2242 23.6272 24.0738 24.7604 24.0738H37.2246V22.6577H26.4601V20.1087H34.9584V18.6926H26.4601V16.1437H37.2246V14.7275H24.7604C23.6272 14.7275 22.7775 15.5772 22.7775 16.7101Z" fill="black"/>
<path d="M14.5621 18.6926V19.259V22.941H4.93071L7.19691 16.4269H14.5621V18.6926ZM15.6952 14.7275H14.5621H4.08088L0.964844 23.7906H2.09795H2.6645H4.36415H14.5621H17.9615V18.9758V18.4094V16.7101C17.9615 15.8604 16.8284 14.7275 15.6952 14.7275Z" fill="black"/>
<path d="M52.8053 20.1088C53.3719 20.1088 53.9384 20.6752 53.9384 21.5248C53.9384 22.3745 53.3719 22.9409 52.522 22.9409H45.1569V16.4268H52.522C53.3719 16.4268 53.9384 16.9933 53.9384 17.8429C53.9384 18.4095 53.3719 18.9758 52.8053 19.259H49.1227H47.7064V20.6752H52.8053V20.1088ZM54.7883 15.0107H43.1739H41.7575V15.5772V16.1436V22.6577V23.2242V23.7906H54.7883C56.2046 23.7906 57.621 22.6577 57.621 21.2416C57.621 20.392 57.3377 19.8254 56.7711 19.259C57.3377 18.6927 57.621 18.1261 57.621 17.2765C57.621 16.1436 56.2046 15.0107 54.7883 15.0107Z" fill="black"/>
<path d="M107.476 18.6927H101.811H100.394V20.1088H105.21C106.06 20.1088 106.626 20.6752 106.626 21.5248C106.626 22.3745 106.06 22.9409 105.21 22.9409H97.8447V15.0107H94.7286V22.9409V23.5074V24.0738H107.759C109.176 24.0738 110.592 22.9409 110.592 21.5248C110.309 20.1088 109.176 18.6927 107.476 18.6927Z" fill="black"/>
<path d="M140.338 23.7906H135.522V15.2939H131.556L140.054 8.21337V23.7906H140.338ZM128.157 23.7906H123.058V15.2939H119.375L127.873 8.21337V23.7906H128.157ZM131.273 0C121.358 0 113.426 7.64692 113.426 17.2765C113.426 26.9059 121.358 34.5529 131.273 34.5529C141.187 34.5529 149.119 26.9059 149.119 17.2765C149.119 7.64692 141.187 0 131.273 0Z" fill="black"/>
<path d="M58.7533 30.3047H57.0537V30.8711H58.7533V33.9864H60.1698V30.8711H61.8694V30.3047H60.1698H58.7533Z" fill="black"/>
<path d="M99.5446 30.3047H97.845V30.8711H99.5446V33.9864H100.961V30.8711H102.661V30.3047H100.961H99.5446Z" fill="black"/>
<path d="M62.7187 31.1544V33.1369C62.7187 33.4201 63.0019 33.9867 63.5684 33.9867H68.3841V33.4201H64.135V32.2874H67.5344V31.7208H64.135V30.5879H68.3841V30.0215H63.5684C63.2852 30.3047 62.7187 30.588 62.7187 31.1544Z" fill="black"/>
<path d="M83.6811 31.1544V33.1369C83.6811 33.4201 83.9644 33.9867 84.531 33.9867H89.3467V33.4201H85.0975V32.2874H88.4968V31.7208H85.0975V30.5879H89.3467V30.0215H84.531C83.9644 30.3047 83.6811 30.588 83.6811 31.1544Z" fill="black"/>
<path d="M108.893 30.3047H103.794V30.5877V30.8711V33.9864H105.21V30.8711H108.043C108.326 30.8711 108.609 31.1543 108.609 31.4375C108.609 31.7207 108.326 32.0039 108.043 32.0039H106.06V32.5704H106.627H108.893C109.459 32.5704 110.026 32.0039 110.026 31.4375C110.026 30.8711 109.459 30.3047 108.893 30.3047Z" fill="black"/>
<path d="M73.4836 30.3047L71.784 31.7207L70.0844 30.3047H69.2345L71.5007 32.0039L68.9513 33.9864H70.6509L72.3506 32.5704L73.7668 33.9864H74.6167L72.6337 32.2871L75.1833 30.3047H73.4836Z" fill="black"/>
<path d="M81.4151 30.3047H79.9988V33.42H79.1489H77.7326V30.3047H76.3162V33.1368C76.3162 33.7032 76.5995 33.9864 77.1661 33.9864H79.4323H81.4151H82.265V33.42H81.4151V30.3047Z" fill="black"/>
<path d="M95.0129 31.7207H92.1802V30.3047H90.7637V33.1368C90.7637 33.42 91.0471 33.9864 91.6136 33.9864H92.1802V32.2871H95.0129V33.9864H95.5794C95.8628 33.9864 96.4293 33.7032 96.4293 33.1368V30.3047H95.0129V31.7207Z" fill="black"/>
</g>
<defs>
<clipPath id="clip0_161_1169">
<rect width="149.13" height="35" fill="white" transform="translate(0.964844)"/>
</clipPath>
</defs>
</svg>
