<svg width="145" height="35" viewBox="0 0 145 35" fill="none" xmlns="http://www.w3.org/2000/svg">
<g clip-path="url(#clip0_161_1121)">
<path d="M9.64743 25.2746C8.08375 23.7112 7.04129 21.6267 6.78068 19.5423H4.43515C4.95638 23.1901 7.04129 26.3169 9.64743 28.4013C10.4293 28.9224 11.4717 29.4436 12.2536 29.9647V4.95068C11.2111 5.47182 10.4293 5.99296 9.64743 6.51408V25.2746Z" fill="black"/>
<path d="M26.0666 14.3312C25.5452 15.3735 24.7634 16.1551 23.721 16.6762V7.55655C24.2422 7.81711 24.7634 8.07768 25.024 8.33825L25.2847 8.5988C26.8483 10.1622 27.109 12.5073 26.0666 14.3312ZM28.9332 11.9861C28.9332 10.6833 28.6727 9.64106 28.1514 8.5988C26.8483 6.5143 25.024 4.42981 21.1149 3.90869V25.2749C22.9391 24.7536 23.721 23.972 23.721 23.972V19.0213C23.9815 19.0213 24.2422 18.7608 24.2422 18.7608C24.5028 18.7608 24.7634 18.5003 25.024 18.5003C25.8059 19.803 26.3271 21.1058 26.3271 22.6692V28.4016C28.1514 27.0988 28.9332 26.0565 28.9332 26.0565V22.6692C28.9332 20.5847 28.1514 18.5003 26.8483 16.9369C27.8908 15.8946 28.412 14.5917 28.6727 13.2889C28.9332 13.0284 28.9332 12.5073 28.9332 11.9861Z" fill="black"/>
<path d="M17.9884 28.9227V3.90869C16.9458 3.90869 16.1641 3.90869 15.3822 4.16925V31.0072C16.1641 31.2677 17.2065 31.2678 17.9884 31.2678C20.0733 31.2678 21.8975 30.7466 23.4613 30.2255V27.6199C21.8975 28.4016 20.0733 28.9227 17.9884 28.9227Z" fill="black"/>
<path d="M18.2481 32.831C9.64786 32.831 2.61127 26.0562 2.61127 17.4577C2.61127 8.85913 9.64786 2.08449 18.2481 2.08449C26.8483 2.08449 33.885 8.85913 33.885 17.4577C33.885 26.0562 26.8483 32.831 18.2481 32.831ZM18.2481 0C8.34478 0 0.526367 7.81687 0.526367 17.4577C0.526367 27.0985 8.34478 34.9154 18.2481 34.9154C28.1514 34.9154 35.9699 27.0985 35.9699 17.4577C35.9699 7.81687 27.8908 0 18.2481 0Z" fill="black"/>
<path d="M48.7398 13.5491L50.0428 9.64068L51.3459 13.5491H48.7398ZM50.564 5.47168H49.2611L45.0912 18.4999H47.1762L48.2186 15.1124H51.6066L52.6491 18.4999H54.9946L50.564 5.47168Z" fill="black"/>
<path d="M65.1583 16.9366C64.3764 16.9366 63.8552 16.6761 63.334 16.4155C62.8128 16.1548 62.5521 15.3732 62.2916 14.5916C62.0309 13.8098 61.7703 13.0282 61.7703 11.9859C61.7703 10.9436 61.7703 10.162 62.0309 9.38027C62.2916 8.59858 62.5522 8.07746 63.0735 7.8169C63.5947 7.55634 64.1159 7.29575 64.8977 7.29575C65.4189 7.29575 65.6796 7.29575 66.2008 7.55632C66.722 7.81689 66.9827 7.81689 67.2432 8.07746V5.73239C66.9827 5.47182 66.4613 5.21127 65.9401 5.21127C65.4189 5.21127 65.1583 4.95068 64.6371 4.95068C63.5947 4.95068 62.5522 5.21127 61.7703 5.73239C60.9884 6.25351 60.4672 7.0352 59.946 8.07746C59.4248 9.11972 59.4248 10.4225 59.4248 11.7253C59.4248 13.2887 59.6855 14.3309 59.946 15.3732C60.4672 16.4155 60.9884 17.1971 61.7703 17.7182C62.5522 18.2394 63.5947 18.5 64.6371 18.5C65.1583 18.5 65.6796 18.5 65.9401 18.2394C66.4613 18.2394 66.722 17.9789 67.2432 17.7182V15.6338C66.9827 15.8943 66.4613 16.155 65.9401 16.155C66.2008 16.9366 65.6796 16.9366 65.1583 16.9366Z" fill="black"/>
<path d="M77.4069 13.5491L78.7101 9.64068L80.0132 13.5491H77.4069ZM77.9282 5.47168L73.7584 18.4999H75.8433L76.8857 15.1124H80.2737L81.3162 18.4999H83.6617L79.492 5.47168H77.9282Z" fill="black"/>
<path d="M92.0021 16.6758V7.55617H93.0445C94.087 7.55617 95.1294 8.07729 95.6506 8.85898C96.1718 9.64067 96.4325 10.6829 96.4325 12.2463C96.4325 15.3731 95.3901 16.9365 93.0445 16.9365H92.0021V16.6758ZM97.2144 16.9365C98.2569 15.8942 98.5174 14.0703 98.5174 11.9858C98.5174 9.90124 97.9962 8.33786 97.2144 7.03505C96.1718 5.9928 94.8689 5.47168 93.0445 5.47168H89.9172V18.4999H93.0445C94.8689 18.4999 96.4325 17.9787 97.2144 16.9365Z" fill="black"/>
<path d="M107.379 12.7674H111.028V10.9435H107.379V7.29561H111.288V5.47168H105.294V18.4999H111.288V16.6758H107.379V12.7674Z" fill="black"/>
<path d="M130.052 18.4999L128.488 5.47168H127.185L123.797 14.8519L120.409 5.47168H118.846L117.543 18.4999H119.627L120.409 10.6829L123.276 18.4999H124.319L126.925 10.6829L127.967 18.4999H130.052Z" fill="black"/>
<path d="M140.736 18.4999V12.5069L144.124 5.47168H141.519L139.694 10.6829L137.609 5.47168H135.003L138.391 12.5069V18.4999H140.736Z" fill="black"/>
<path d="M44.8313 29.9645C44.8313 30.2251 44.8313 30.4856 44.8313 30.4856L44.5706 30.7463C44.3101 30.7463 44.31 30.7463 44.0494 30.4856V31.2674C44.31 31.2674 44.5706 31.5279 44.8313 31.5279C45.0919 31.5279 45.3525 31.5279 45.6131 31.2674C45.8738 31.0068 45.8738 30.7463 45.8738 30.2251V26.0562H44.8313V29.9645Z" fill="black"/>
<path d="M49.7816 29.1827L50.3028 27.6193L50.8242 29.1827H49.7816ZM50.0423 25.7954L48.2179 31.0066H48.9998L49.521 29.7038H50.8242L51.3454 31.0066H52.3878L50.5635 25.7954H50.0423Z" fill="black"/>
<path d="M57.8614 30.4855C57.6007 30.4855 57.6007 30.4855 57.6007 30.7461H57.3402C57.0795 30.7461 56.8188 30.7461 56.5583 30.4855C56.2976 30.225 56.2976 30.225 56.0371 29.7038C56.0371 29.4432 55.7764 28.9222 55.7764 28.6616C55.7764 27.8799 55.7764 27.6193 56.0371 27.0982C56.2976 26.8377 56.5583 26.577 57.0795 26.577C57.34 26.577 57.6007 26.577 57.8614 26.577C58.122 26.577 58.3826 26.8377 58.6432 26.8377V26.056C58.3826 25.7954 58.122 25.7954 57.8614 25.7954C57.6007 25.7954 57.34 25.7954 57.0795 25.7954C56.5583 25.7954 56.2976 25.7954 55.7764 26.056C55.5158 26.3165 55.2552 26.577 54.9946 27.0982C54.7339 27.6193 54.7339 28.1406 54.7339 28.6616C54.7339 29.1827 54.7339 29.7039 54.9946 30.225C55.2552 30.7461 55.5158 31.0066 55.7764 31.2673C56.0371 31.5278 56.5583 31.5278 56.8188 31.5278C57.34 31.5278 57.8614 31.2672 58.3826 31.0066V28.9222H57.8614V30.4855Z" fill="black"/>
<path d="M64.3778 29.4435C64.3778 29.9645 64.3778 30.2251 64.1173 30.2251C63.8566 30.4856 63.8566 30.4856 63.3354 30.4856C63.0749 30.4856 62.8142 30.4856 62.5536 30.2251C62.293 29.9645 62.293 29.704 62.293 29.4435V26.0562H61.5111V29.4435C61.5111 29.9645 61.5111 30.2251 61.7717 30.4856C62.0323 30.7463 62.0323 31.0068 62.293 31.2674C62.5535 31.5279 62.8142 31.5279 63.3354 31.5279C63.5961 31.5279 64.1173 31.5279 64.3778 31.2674C64.6385 31.0068 64.8991 30.7463 64.8991 30.4856C65.1597 30.2251 65.1597 29.704 65.1597 29.4435V26.0562H64.3778V29.4435Z" fill="black"/>
<path d="M69.3284 29.1827L69.8496 27.6193L70.3708 29.1827H69.3284ZM69.5889 25.7954L67.7646 31.0066H68.5465L69.0677 29.7038H70.3708L70.892 31.0066H71.9345L70.1101 25.7954H69.5889Z" fill="black"/>
<path d="M76.8856 28.1406C76.8856 28.4012 76.625 28.4012 76.3644 28.4012H75.8431V26.5772H76.3644C76.625 26.5772 76.8856 26.5772 76.8856 26.8378C76.8856 27.0983 77.1463 27.0983 77.1463 27.359C77.1463 27.8801 76.8856 27.8801 76.8856 28.1406ZM77.6675 28.4012C77.9282 28.1406 77.9282 27.8801 77.9282 27.6195C77.9282 27.3589 77.9282 27.0983 77.6675 26.8378C77.6675 26.5772 77.4069 26.3167 77.1463 26.3167C76.8856 26.3167 76.625 26.0562 76.3644 26.0562H75.0614V31.2674H75.8431V28.9222H76.3644L77.1463 31.2674H77.9282L76.8856 28.9222C77.4069 28.6617 77.4069 28.6617 77.6675 28.4012Z" fill="black"/>
<path d="M81.3166 30.2256C81.0559 30.2256 81.0559 30.2256 81.0559 30.4861L80.7954 30.7467V31.0072C80.7954 31.0072 80.7954 31.2679 81.0559 31.2679H81.3166H81.5771C81.5771 31.2679 81.8378 31.2679 81.8378 31.0072V30.7467C81.8378 30.4861 81.8378 30.4861 81.5771 30.4861C81.5771 30.4861 81.5771 30.2256 81.3166 30.2256Z" fill="black"/>
<path d="M86.0077 25.7954H84.9653V31.2673H87.3108V30.4855H86.0077V25.7954Z" fill="black"/>
<path d="M91.4809 29.1827L92.0021 27.6193L92.5233 29.1827H91.4809ZM91.7414 25.7954L89.9172 31.0066H90.699L91.2202 29.7038H92.5233L93.0445 31.0066H94.087L92.2626 25.7954H91.7414Z" fill="black"/>
<path d="M99.8208 29.4432L97.4754 25.7954H96.9542V31.2673H97.9966V27.8799L100.342 31.2673H100.863V25.7954H99.8208V29.4432Z" fill="black"/>
<path d="M105.554 30.4855H105.293V26.577H105.554C106.075 26.577 106.336 26.8377 106.596 27.0982C106.857 27.3588 106.857 27.8799 106.857 28.4011C106.857 29.7038 106.336 30.4855 105.554 30.4855ZM105.554 25.7954H104.251V31.0066H105.554C106.336 31.0066 106.857 30.7461 107.117 30.225C107.378 29.7038 107.639 29.1827 107.639 28.1404C107.639 27.3588 107.378 26.5772 107.117 26.056C106.857 26.056 106.075 25.7954 105.554 25.7954Z" fill="black"/>
<path d="M116.5 28.1406C116.5 28.4012 116.24 28.4012 115.979 28.4012H115.458V26.5772H115.979C116.24 26.5772 116.5 26.5772 116.5 26.8378C116.5 27.0983 116.761 27.0983 116.761 27.359C116.761 27.8801 116.761 27.8801 116.5 28.1406ZM117.543 28.4012C117.804 28.1406 117.804 27.8801 117.804 27.6195C117.804 27.3589 117.804 27.0983 117.543 26.8378C117.543 26.5772 117.282 26.3167 117.022 26.3167C116.761 26.3167 116.5 26.0562 116.24 26.0562H114.937V31.2674H115.719V28.9222H116.24L117.022 31.2674H117.804L116.761 28.9222C117.022 28.6617 117.282 28.6617 117.543 28.4012Z" fill="black"/>
<path d="M123.797 29.7038C123.797 29.9645 123.536 30.225 123.275 30.4855C123.015 30.7461 122.754 30.7461 122.494 30.7461C122.233 30.7461 121.972 30.7461 121.712 30.4855C121.451 30.225 121.451 29.9645 121.191 29.7038C121.191 29.4432 120.93 28.9222 120.93 28.6616C120.93 28.1406 120.93 27.8799 121.191 27.6193C121.191 27.3588 121.451 27.0982 121.712 26.8377C121.972 26.577 122.233 26.577 122.494 26.577C122.754 26.577 123.015 26.577 123.275 26.8377C123.536 27.0982 123.536 27.3588 123.797 27.6193C123.797 27.8799 124.057 28.4011 124.057 28.6616C124.057 28.9222 124.057 29.4432 123.797 29.7038ZM123.797 26.056C123.536 25.7954 123.015 25.7954 122.754 25.7954C122.494 25.7954 121.972 25.7954 121.712 26.056C121.451 26.3165 121.191 26.577 120.93 27.0982C120.669 27.6193 120.669 28.1406 120.669 28.6616C120.669 29.1827 120.669 29.7039 120.93 30.225C121.191 30.7461 121.451 31.0066 121.712 31.2673C121.972 31.5278 122.494 31.5278 122.754 31.5278C123.275 31.5278 123.536 31.5278 123.797 31.2673C124.057 31.0066 124.318 30.7461 124.579 30.225C124.839 29.7039 124.839 29.1827 124.839 28.6616C124.839 28.1406 124.839 27.6193 124.579 27.0982C124.318 26.577 124.057 26.3165 123.797 26.056Z" fill="black"/>
<path d="M129.53 29.7038H129.269L128.227 25.7954H127.445L129.009 31.2673H129.791L131.354 25.7954H130.573L129.53 29.7038Z" fill="black"/>
<path d="M135.264 28.9222H136.567V28.1404H135.264V26.577H136.828V25.7954H134.482V31.2673H136.828V30.4855H135.264V28.9222Z" fill="black"/>
<path d="M141.778 28.1406C141.778 28.4012 141.518 28.4012 141.257 28.4012H140.736V26.5772H141.257C141.518 26.5772 141.778 26.5772 141.778 26.8378C141.778 27.0983 142.038 27.0983 142.038 27.359C142.038 27.8801 142.038 27.8801 141.778 28.1406ZM142.821 28.4012C143.081 28.1406 143.081 27.8801 143.081 27.6195C143.081 27.3589 143.081 27.0983 142.821 26.8378C142.821 26.5772 142.561 26.3167 142.3 26.3167C142.038 26.3167 141.778 26.0562 141.518 26.0562H140.215V31.2674H140.997V28.9222H141.518L142.3 31.2674H143.081L142.038 28.9222C142.3 28.6617 142.561 28.6617 142.821 28.4012Z" fill="black"/>
</g>
<defs>
<clipPath id="clip0_161_1121">
<rect width="144.2" height="35" fill="white" transform="translate(0.526367)"/>
</clipPath>
</defs>
</svg>
