<svg width="125" height="35" viewBox="0 0 125 35" fill="none" xmlns="http://www.w3.org/2000/svg">
<g clip-path="url(#clip0_161_1092)">
<path d="M6.30217 17.8533C5.09561 18.0945 3.88907 18.3358 2.68252 18.8182V11.8217C2.68252 10.8566 3.40645 10.1328 4.37168 10.1328H6.30217V17.8533ZM3.88907 7.72021C1.9586 7.72021 0.510742 9.16779 0.510742 11.0979V19.5421V22.4372V26.0561V28.71C1.23467 28.2275 1.9586 27.9862 2.92384 27.7449V25.091V21.7134C3.88907 21.4721 5.09561 20.9897 6.54347 20.7483V24.126V26.78C7.2674 26.5386 8.23264 26.2973 8.95657 26.0561V23.6436V20.2658V17.8533V10.6154V8.20275H6.54347H3.88907V7.72021Z" fill="#1D1D1B"/>
<path d="M92.2078 13.7518V15.9231V17.8533C92.2078 18.3358 91.9664 18.577 91.4838 18.577C90.7599 18.577 90.0359 18.3358 89.3121 18.3358C89.0707 18.3358 88.8294 18.0945 88.8294 17.612V15.6818V13.5106V10.8566C88.8294 10.6154 89.0707 10.1328 89.5533 10.1328H91.9664C92.2078 10.1328 92.6904 10.3741 92.6904 10.8566V13.7518H92.2078ZM92.6904 7.72021H92.449H88.8294H88.5881C87.3815 7.72021 86.4163 8.68527 86.4163 9.89158V10.3741V13.2693V15.4406V18.0945V18.577C86.4163 19.5421 87.1403 20.507 88.3467 20.7484C88.5881 20.7484 88.5881 20.7484 88.8294 20.7484C90.0359 20.7484 91.2425 20.9897 92.449 20.9897C92.449 20.9897 92.449 20.9897 92.6904 20.9897C93.897 21.2309 94.8622 20.2658 94.8622 18.8182V16.1643V13.993V10.1328V9.65031C94.6208 8.68527 93.897 7.72021 92.6904 7.72021Z" fill="#1D1D1B"/>
<path d="M102.102 13.993C102.102 14.4755 101.619 14.7168 101.378 14.7168C100.413 14.7168 99.6886 14.4755 98.7233 14.4755V10.1328H101.619C102.102 10.1328 102.343 10.3741 102.343 10.8566V13.993H102.102ZM102.584 7.72021H102.102H98.482H96.0689V10.1328V14.2343V16.4057V19.0595V21.4721C96.7929 21.4721 97.7581 21.7134 98.482 21.7134V19.3008V16.6469C99.6886 16.8882 100.895 16.8882 102.102 17.1294H102.343C103.55 17.3707 104.515 16.4057 104.515 15.1994V10.3741V9.89158C104.515 8.68526 103.791 7.72021 102.584 7.72021Z" fill="#1D1D1B"/>
<path d="M111.754 15.4406C111.754 15.9231 111.271 16.1643 111.03 16.1643C110.064 15.9231 109.099 15.9231 108.134 15.6818V10.1328H111.03C111.512 10.1328 111.754 10.3741 111.754 10.8566V15.4406ZM111.754 7.72021H108.134H105.721V10.1328V15.4406V17.6119V20.5071V22.9197C106.445 23.161 107.41 23.161 108.134 23.4022V20.9897V18.0945C109.34 18.3358 110.547 18.577 111.754 18.577C112.96 18.8182 114.167 17.8533 114.167 16.6469V10.1328C114.167 8.68526 112.96 7.72021 111.754 7.72021Z" fill="#1D1D1B"/>
<path d="M53.3576 10.1328H55.7707V7.72021H53.3576H49.738H47.3249V10.1328V12.7867V14.9581V17.3707V19.5421C48.0488 19.5421 49.014 19.5421 49.738 19.5421C50.9446 19.5421 52.151 19.5421 53.3576 19.5421C54.0815 19.5421 55.0468 19.5421 55.7707 19.5421V17.3707C55.0468 17.3707 54.0815 17.3707 53.3576 17.3707C52.151 17.3707 50.9446 17.3707 49.738 17.3707V14.9581C50.9446 14.9581 52.151 14.9581 53.3576 14.9581C54.0815 14.9581 55.0468 14.9581 55.7707 14.9581V12.7867C55.0468 12.7867 54.0815 12.7867 53.3576 12.7867C52.151 12.7867 50.9446 12.7867 49.738 12.7867V10.1328H53.3576Z" fill="#1D1D1B"/>
<path d="M40.3265 10.1328H43.2223C43.4635 10.1328 43.7049 10.3741 43.7049 10.6154V12.3042C43.7049 12.5454 43.4635 12.7867 43.2223 12.7867C42.257 12.7867 41.2918 12.7867 40.0852 13.0279V10.1328H40.3265ZM40.3265 17.8533V15.4406C41.5331 15.4406 42.7397 15.1994 43.9461 15.1994H44.1875C45.3941 15.1994 46.3593 14.2343 46.3593 13.0279V10.1328V9.89158C46.3593 8.68526 45.3941 7.72021 44.1875 7.72021H43.9461H40.3265H37.9134V10.1328V13.2692V15.4406V18.0945V20.2658C38.6374 20.2658 39.6026 20.0246 40.3265 20.0246V17.8533Z" fill="#1D1D1B"/>
<path d="M34.2942 13.7518V15.9231V17.8533C34.2942 18.3358 34.0529 18.577 33.5703 18.8182C32.8463 18.8182 32.3637 18.8182 31.6399 19.0595C31.1573 19.0595 30.6745 18.8182 30.6745 18.0945V16.4057V14.2343V11.3391C30.6745 10.8566 31.1573 10.3741 31.6399 10.3741H33.5703C34.0529 10.3741 34.5355 10.8566 34.5355 11.3391V13.7518H34.2942ZM34.5355 7.72021H30.4333C29.2267 7.72021 28.2615 8.68526 28.2615 9.89156V10.1328V14.2343V16.4057V19.0595C28.2615 20.2658 29.4681 21.2309 30.6745 21.2309C31.8811 20.9897 33.0877 20.9897 34.2942 20.7483C34.5355 20.7483 34.5355 20.7483 34.7768 20.7483C35.9834 20.7483 36.7074 19.7833 36.7074 18.577V15.6818V13.5106V10.1328V9.89156C36.7074 8.68526 35.7421 7.72021 34.5355 7.72021Z" fill="#1D1D1B"/>
<path d="M16.1953 20.2658C16.1953 20.7483 15.9539 20.9895 15.4713 20.9895C14.5061 21.2308 13.5409 21.4721 12.5756 21.4721V18.3356C13.5409 18.0944 14.5061 18.0944 15.7127 17.8531C15.9539 17.8531 16.1953 18.0944 16.1953 18.3356V20.2658ZM12.5756 10.1328H14.5061C15.2301 10.1328 15.7127 10.6153 15.7127 11.3391L15.2301 15.4406C15.2301 15.6818 14.9887 15.9231 14.5061 16.1643C13.7822 16.1643 13.2996 16.4056 12.8169 16.4056V10.1328H12.5756ZM17.4019 15.6818L18.1257 11.5803C18.3671 9.65025 16.9193 7.96143 14.9887 7.96143H12.8169H10.4039V10.374V16.888V19.3007V22.4371V24.8498C11.1278 24.6085 12.093 24.3673 12.8169 24.3673C14.0235 24.1259 15.2301 23.8847 16.4366 23.6434C17.8845 23.4022 18.8497 22.1959 18.8497 20.7483C18.6083 17.3707 18.6083 16.6468 17.4019 15.6818Z" fill="#1D1D1B"/>
<path d="M63.2513 16.6469C63.2513 16.8882 63.0101 17.1294 62.7687 17.1294C61.8035 17.1294 60.5969 17.1294 59.6317 17.1294V14.7168C60.5969 14.7168 61.8035 14.7168 62.7687 14.7168C63.0101 14.7168 63.2513 14.9581 63.2513 15.1994V16.6469ZM59.6317 10.1328H61.5621C62.0447 10.1328 62.5275 10.6154 62.2861 11.0979L62.0449 12.5454C62.0449 12.5454 60.8383 12.5454 59.6317 12.5454V10.1328ZM62.2861 7.72021H59.6317H57.2186V10.1328V12.5454V14.7168V17.1294V19.3008C57.9426 19.3008 58.9078 19.3008 59.6317 19.3008C60.5969 19.3008 61.8035 19.3008 62.7687 19.3008H63.2513H63.4927C64.6992 19.3008 65.6644 18.3358 65.6644 17.1294C65.6644 14.9581 65.6644 13.993 64.4579 12.7867L64.9405 11.0979C65.1818 9.40904 63.9753 7.72021 62.2861 7.72021Z" fill="#1D1D1B"/>
<path d="M72.9033 19.3008C73.6273 19.3008 74.5925 19.3008 75.3164 19.3008V17.1294V14.7168V13.2692V12.7867V10.1328V7.72021H72.9033V10.1328V12.3042L69.2837 16.1643V14.7168V12.5454V10.1328V7.72021H66.8706V10.1328V12.5454V14.7168V17.1294V19.3008C67.5946 19.3008 68.5598 19.3008 69.2837 19.3008L72.9033 15.6818V17.1294V19.3008Z" fill="#1D1D1B"/>
<path d="M83.7617 13.2692L84.2443 10.8566C84.7269 9.16779 83.5204 7.72021 81.8312 7.72021H79.1769H76.7637V10.1328H79.1769H81.1073C81.5899 10.1328 81.8312 10.6154 81.8312 11.0979L81.3485 13.0279C80.6247 13.0279 79.9007 13.0279 79.1769 13.0279C78.4529 13.0279 77.4877 13.0279 76.7637 13.0279V15.1994C77.4877 15.1994 78.4529 15.1994 79.1769 15.1994C80.1421 15.1994 81.1073 15.1994 82.0725 15.4406C82.3138 15.4406 82.5551 15.6818 82.5551 15.9231V17.3707C82.5551 17.6119 82.3138 17.8533 82.0725 17.8533C81.1073 17.8533 80.1421 17.8533 79.1769 17.6119C78.4529 17.6119 77.4877 17.6119 76.7637 17.6119V19.7833C77.4877 19.7833 78.4529 19.7833 79.1769 19.7833C80.3833 19.7833 81.5899 20.0246 82.7965 20.0246C82.7965 20.0246 82.7965 20.0246 83.0377 20.0246C84.2443 20.0246 85.2096 19.0595 85.2096 17.8533C84.9682 14.9581 84.9682 13.993 83.7617 13.2692Z" fill="#1D1D1B"/>
<path d="M121.406 18.577V21.2309V23.8848C121.406 24.3673 120.924 24.6085 120.682 24.3673C119.958 24.126 119.476 23.8848 118.752 23.6436C118.269 23.4022 117.787 22.9197 117.787 22.4372V20.0246V17.6119V10.8566C117.787 10.6154 118.028 10.1328 118.511 10.1328H120.924C121.165 10.1328 121.648 10.3741 121.648 10.8566V18.577H121.406ZM122.13 7.72021H121.406H117.787H117.063C116.097 7.72021 115.373 8.444 115.373 9.40906V10.1328V17.1294V19.5421V22.9197V23.4022C115.373 24.6085 116.097 25.5736 117.304 26.0561C117.545 26.0561 117.545 26.0561 117.787 26.2973C118.993 26.78 120.2 27.0212 121.406 27.5037C122.613 27.9862 123.819 27.0212 123.819 25.8149V22.1959V19.5421V10.3741V9.65031C123.819 8.444 123.095 7.72021 122.13 7.72021Z" fill="#1D1D1B"/>
<path d="M21.9875 7.72021H19.0919V10.1328H21.9875V14.9581V17.1294V20.0246V22.4372C22.7115 22.4372 23.6767 22.1959 24.4006 22.1959V19.7833V16.8882V14.7168V10.1328H27.2964V7.72021H24.4006H21.9875Z" fill="#1D1D1B"/>
<path d="M40.3265 2.41261H77.4882C77.0056 2.65388 76.523 2.89515 76.0404 3.13641H40.3265V2.41261ZM40.3265 4.10144H73.6272C71.9381 4.82523 70.2489 5.79028 68.5597 6.75534H74.1098C77.7294 5.0665 81.3491 3.61892 84.7275 2.41261V0H40.3265H37.9134V2.41261V3.13641V4.34272V6.03154H40.3265V4.10144Z" fill="#1D1D1B"/>
<path d="M82.0732 25.3327C76.0405 24.3676 68.8012 23.8851 61.3207 23.8851C55.0466 23.8851 48.7725 24.3676 43.2224 24.85C43.4638 24.6088 43.9464 24.3676 44.429 24.1263C49.7377 23.4025 55.5292 23.1612 61.3207 23.1612C69.0426 23.1612 76.0405 23.6437 82.0732 24.85V25.3327ZM82.0732 23.4025C76.0405 22.4374 68.8012 21.9549 61.3207 21.9549C56.2532 21.9549 50.9443 22.1961 46.1182 22.6787C47.0834 21.9549 48.0487 21.2312 49.2551 20.5073C47.8073 20.5073 46.3595 20.7486 44.9116 20.7486C42.4986 22.4375 40.3267 23.8851 38.6375 25.5739V27.9864C44.9116 26.7801 53.3574 26.0564 61.3207 26.0564C70.0078 26.0564 77.9709 26.7801 84.4862 28.2277V27.7452V26.0564V25.3327V24.1263V22.1961H82.3146V23.4025H82.0732Z" fill="#1D1D1B"/>
<path d="M41.5333 31.364C41.7746 30.8814 42.2573 30.3989 42.9812 30.3989C43.4638 30.3989 43.9464 30.3989 44.1877 30.6402C44.429 30.8814 44.6704 31.3639 44.6704 31.8465C44.6704 32.329 44.6704 32.8115 44.429 33.0528C44.1877 33.2941 43.7051 33.5353 43.2225 33.5353C42.7399 33.5353 42.4985 33.5353 42.2573 33.2941C42.0159 33.0528 41.7746 32.8116 41.7746 32.5702L42.7399 32.329C42.7399 32.5702 42.9812 32.8116 43.4638 32.8116C43.9464 32.8116 43.9464 32.5702 43.9464 32.0877L42.7399 32.5702V32.0877H43.7051C43.7051 31.6053 43.4638 31.6053 42.9812 31.6053C42.7399 31.6053 42.4985 31.8465 42.4985 32.0877L41.5333 31.364Z" fill="black"/>
<path d="M49.0139 33.2941H48.0487L47.3247 32.5702C47.3247 32.329 47.0834 32.329 47.0834 32.329H46.8421V33.5353H45.8768L45.6355 30.3989H46.6008V31.6053H46.8421C46.8421 31.6053 46.8421 31.364 47.0834 31.1226C47.0834 30.8814 47.0834 30.8814 47.3247 30.6402L47.566 30.3989C47.8073 30.3989 48.0487 30.3989 48.2899 30.3989V31.1226C48.0487 31.1226 48.0487 31.1226 48.0487 31.364L47.8073 31.6053C47.8073 31.8465 47.8073 31.8465 47.566 31.8465L47.3247 32.0877C47.566 32.0877 47.566 32.0877 47.8073 32.329C47.8073 32.329 48.0487 32.5702 48.2899 32.8116L49.0139 33.2941Z" fill="black"/>
<path d="M52.1506 31.8466L53.1159 32.0879C53.1159 32.3292 52.8746 32.5704 52.8746 32.8117C52.8746 33.0529 52.392 32.8117 52.392 32.8117C52.392 32.8117 51.9094 33.0529 51.668 33.0529C51.4268 33.0529 50.944 33.0529 50.944 33.0529C50.7028 33.0529 50.4614 32.8117 50.4614 32.5704C49.9788 32.3292 49.9788 31.8467 49.9788 31.6053C49.9788 31.1228 49.9788 30.6404 50.2202 30.399C50.4614 30.1577 50.944 29.9165 51.4267 29.9165C51.9094 29.9165 52.1506 29.9165 52.392 30.1577C52.6333 30.399 52.8746 30.6404 52.8746 30.8816L52.1506 31.1228V30.8816L51.9094 30.6404H51.668C51.4268 30.6404 51.1854 30.6404 51.1854 30.8816C51.1854 31.1228 51.1854 31.1228 51.1854 31.6053C51.1854 31.8467 51.1854 32.0879 51.4267 32.3292C51.4267 32.5704 51.668 32.5704 51.9094 32.5704C52.1506 32.5704 52.1506 32.5704 52.392 32.3292C51.9094 32.0879 52.1506 31.8466 52.1506 31.8466Z" fill="black"/>
<path d="M57.218 32.8117H56.2526V30.3991H55.2874V32.8117H54.3222V29.6753H57.218V32.8117Z" fill="black"/>
<path d="M58.6656 29.6753H61.32V30.3991H59.6308V30.8816H61.0786V31.6053H59.6308V32.3292H61.32V33.0529H58.6656V29.6753Z" fill="black"/>
<path d="M62.7683 29.6753H64.4575C64.6989 29.6753 65.1815 29.6753 65.1815 29.9165C65.4228 30.1579 65.4228 30.3991 65.4228 30.6404C65.4228 30.8816 65.4228 31.1229 65.1815 31.3641C64.9402 31.6055 64.6989 31.6055 64.2163 31.6055H63.7337V32.8117H62.7683V29.6753ZM63.7337 31.1229C64.2163 31.1229 64.2163 31.1229 64.4575 31.1229V30.8816V30.6404C64.4575 30.6404 64.2163 30.6404 63.9749 30.6404H63.7337V31.1229Z" fill="black"/>
<path d="M66.63 29.6753H69.5258V30.3991H68.5606V32.8117H67.5954V30.3991H66.63V29.6753Z" fill="black"/>
<path d="M73.868 30.1577L73.6268 33.2943H72.6615V31.6053L71.6962 33.0529H70.731L70.9723 29.9165H71.9376V31.6053L73.1441 29.9165L73.868 30.1577Z" fill="black"/>
<path d="M77.2475 31.8465C77.7301 32.0877 77.7301 32.329 77.7301 32.5702C77.7301 32.8116 77.4887 33.0528 77.2475 33.2941C77.0061 33.5353 76.7649 33.5353 76.2821 33.5353C75.5583 33.5353 75.0757 33.0528 75.0757 32.5702H76.0409C76.0409 32.8116 76.2821 32.8116 76.5235 32.8116C76.7647 32.8116 76.7647 32.8116 76.7647 32.8116C76.7647 32.8116 76.7649 32.5702 77.0061 32.5702V32.329L76.7647 32.0877H76.5235V31.6053H76.7647C77.0061 31.6053 77.0061 31.6053 77.0061 31.6053C77.0061 31.6053 77.0061 31.364 77.2475 31.364C77.2475 31.1226 77.2475 31.1226 77.0061 31.1226C76.7649 31.1226 76.7647 31.1226 76.5235 31.364L75.5583 31.1226C75.7995 30.6402 76.2821 30.3989 76.7647 30.3989C77.2475 30.3989 77.4887 30.6402 77.7301 30.6402C77.9713 30.8814 77.9713 31.1226 77.9713 31.364C77.7301 31.364 77.4887 31.6053 77.2475 31.8465Z" fill="black"/>
<path d="M80.8672 33.2945H79.902L79.6608 33.777H78.6956L80.1434 30.8818H81.1086L81.8325 34.0182H80.8672V33.2945ZM80.8672 32.5706L80.626 31.3643L80.1434 32.5706H80.8672Z" fill="black"/>
</g>
<defs>
<clipPath id="clip0_161_1092">
<rect width="124.444" height="35" fill="white" transform="translate(0.510742)"/>
</clipPath>
</defs>
</svg>
